<?xml version="1.0" encoding="iso-8859-1"?>
<!-- Generator: Adobe Illustrator 27.0.0, SVG Export Plug-In . SVG Version: 6.00 Build 0)  -->
<svg version="1.1" id="Layer_1" xmlns="http://www.w3.org/2000/svg" xmlns:xlink="http://www.w3.org/1999/xlink" x="0px" y="0px"
	 viewBox="0 0 500 500" style="enable-background:new 0 0 500 500;" xml:space="preserve">
<g id="watermark_1_">
	<g>
		<g id="watermark" style="opacity:0.61;">
			<g>
				<g>
					<g>
						<g>
							<polygon style="fill:#FFFFFF;" points="213.765,461.172 208.204,474.017 205.268,474.017 199.726,461.172 202.938,461.172 
								206.846,470.347 210.81,461.172 							"/>
						</g>
						<g>
							<path style="fill:#FFFFFF;" d="M223.507,469.741h-7.469c0.275,1.23,1.321,1.982,2.826,1.982c1.046,0,1.798-0.312,2.477-0.954
								l1.523,1.651c-0.917,1.046-2.294,1.597-4.074,1.597c-3.413,0-5.634-2.147-5.634-5.083c0-2.954,2.257-5.083,5.267-5.083
								c2.899,0,5.138,1.945,5.138,5.12C223.562,469.191,223.526,469.503,223.507,469.741 M216.002,468.071h4.863
								c-0.202-1.248-1.138-2.055-2.422-2.055C217.139,466.016,216.204,466.805,216.002,468.071"/>
						</g>
						<g>
							<path style="fill:#FFFFFF;" d="M224.735,468.934c0-2.973,2.294-5.083,5.505-5.083c2.074,0,3.707,0.899,4.423,2.514
								l-2.22,1.193c-0.532-0.936-1.321-1.358-2.221-1.358c-1.45,0-2.587,1.009-2.587,2.734c0,1.725,1.138,2.734,2.587,2.734
								c0.899,0,1.688-0.404,2.221-1.358l2.22,1.211c-0.716,1.578-2.349,2.495-4.423,2.495
								C227.029,474.017,224.735,471.907,224.735,468.934"/>
						</g>
						<g>
							<path style="fill:#FFFFFF;" d="M242.828,473.393c-0.587,0.422-1.45,0.624-2.331,0.624c-2.33,0-3.688-1.193-3.688-3.542
								v-4.055h-1.523v-2.202h1.523v-2.404h2.863v2.404h2.459v2.202h-2.459v4.019c0,0.844,0.458,1.303,1.229,1.303
								c0.422,0,0.844-0.128,1.156-0.367L242.828,473.393z"/>
						</g>
					</g>
					<g>
						<path style="fill:#FFFFFF;" d="M262.474,463.997v2.643c-0.238-0.018-0.422-0.037-0.642-0.037
							c-1.578,0-2.624,0.862-2.624,2.753v4.661h-2.863v-9.873h2.734v1.303C259.776,464.493,260.951,463.997,262.474,463.997"/>
					</g>
					<g>
						<path style="fill:#FFFFFF;" d="M263.299,472.53l1.009-2.239c1.083,0.789,2.697,1.339,4.239,1.339
							c1.762,0,2.477-0.587,2.477-1.376c0-2.404-7.469-0.752-7.469-5.524c0-2.184,1.762-4,5.413-4c1.615,0,3.267,0.385,4.459,1.138
							l-0.918,2.257c-1.193-0.679-2.422-1.009-3.56-1.009c-1.761,0-2.44,0.66-2.44,1.468c0,2.367,7.468,0.734,7.468,5.45
							c0,2.147-1.78,3.982-5.45,3.982C266.492,474.017,264.437,473.411,263.299,472.53"/>
					</g>
					<g>
						<path style="fill:#FFFFFF;" d="M285.428,469.741h-7.469c0.275,1.23,1.321,1.982,2.826,1.982c1.046,0,1.798-0.312,2.477-0.954
							l1.523,1.651c-0.918,1.046-2.294,1.597-4.074,1.597c-3.413,0-5.634-2.147-5.634-5.083c0-2.954,2.257-5.083,5.267-5.083
							c2.9,0,5.138,1.945,5.138,5.12C285.484,469.191,285.447,469.503,285.428,469.741 M277.923,468.071h4.863
							c-0.202-1.248-1.138-2.055-2.422-2.055C279.061,466.016,278.125,466.805,277.923,468.071"/>
					</g>
					<g>
						<path style="fill:#FFFFFF;" d="M297.007,469.741h-7.469c0.275,1.23,1.321,1.982,2.826,1.982c1.046,0,1.798-0.312,2.477-0.954
							l1.523,1.651c-0.918,1.046-2.294,1.597-4.074,1.597c-3.413,0-5.634-2.147-5.634-5.083c0-2.954,2.257-5.083,5.267-5.083
							c2.899,0,5.138,1.945,5.138,5.12C297.062,469.191,297.025,469.503,297.007,469.741 M289.501,468.071h4.863
							c-0.202-1.248-1.138-2.055-2.422-2.055C290.639,466.016,289.703,466.805,289.501,468.071"/>
					</g>
					<g>
						<polygon style="fill:#FFFFFF;" points="303.208,470.145 301.831,471.503 301.831,474.017 298.969,474.017 298.969,460.401 
							301.831,460.401 301.831,468.108 306.016,464.144 309.429,464.144 305.318,468.328 309.796,474.017 306.327,474.017 						"/>
					</g>
					<g>
						<path style="fill:#FFFFFF;" d="M256.601,475.359L256.601,475.359l-2.86-2.86c-0.435,0.508-0.953,0.943-1.534,1.284
							c-0.092,0.069-0.186,0.136-0.283,0.199l3.027,3.027c0.456,0.456,1.195,0.456,1.65,0
							C257.057,476.554,257.057,475.815,256.601,475.359"/>
					</g>
					<g>
						<path style="fill:#FFFFFF;" d="M249.984,463.244c0.221-0.173,0.495-0.281,0.797-0.281c0.042,0,0.083,0.002,0.124,0.006
							c-0.214-0.156-0.478-0.249-0.764-0.249c-0.395,0-0.744,0.18-0.981,0.458c-0.051,0-0.1,0.006-0.151,0.008
							c0.039-0.077,0.064-0.162,0.064-0.255c0-0.234-0.143-0.434-0.346-0.519c0.087,0.126,0.138,0.279,0.138,0.445
							c0,0.122-0.031,0.237-0.081,0.341c-2.811,0.201-5.03,2.539-5.03,5.4c0,2.993,2.426,5.42,5.42,5.42
							c2.993,0,5.42-2.426,5.42-5.42C254.595,465.879,252.593,463.635,249.984,463.244 M247.983,464.656
							c0.435,0,0.844,0.112,1.199,0.309c0.374-0.245,0.82-0.387,1.299-0.387c0.711,0,1.348,0.312,1.784,0.806
							c-0.435-0.379-1.004-0.61-1.627-0.61c-0.449,0-0.87,0.12-1.234,0.329c-0.079,0.046-0.156,0.096-0.229,0.15
							c-0.065-0.048-0.133-0.093-0.204-0.134c-0.369-0.219-0.8-0.344-1.26-0.344c-0.3,0-0.588,0.054-0.854,0.152
							C247.196,464.754,247.578,464.656,247.983,464.656 M251.772,469.098c0.115,0.305,0.181,0.634,0.181,0.979
							c0,1.534-1.244,2.777-2.778,2.777c-1.534,0-2.777-1.243-2.777-2.777c0-0.345,0.066-0.674,0.181-0.979
							c-0.62-0.382-1.035-1.064-1.035-1.846c0-1.197,0.971-2.168,2.168-2.168c0.565,0,1.078,0.218,1.463,0.572
							c0.386-0.354,0.899-0.572,1.464-0.572c1.197,0,2.168,0.971,2.168,2.168C252.807,468.034,252.392,468.716,251.772,469.098"/>
					</g>
					<g>
						<path style="fill:#FFFFFF;" d="M251.666,467.061c0,0.497-0.404,0.901-0.901,0.901c-0.497,0-0.901-0.404-0.901-0.901
							s0.404-0.901,0.901-0.901c0.101,0,0.197,0.017,0.287,0.047c-0.03,0.062-0.045,0.132-0.045,0.204
							c0,0.273,0.221,0.494,0.494,0.494c0.05,0,0.099-0.008,0.146-0.022C251.66,466.941,251.666,467,251.666,467.061"/>
					</g>
					<g>
						<path style="fill:#FFFFFF;" d="M248.255,467.061c0,0.376-0.305,0.681-0.681,0.681c-0.376,0-0.681-0.305-0.681-0.681
							s0.305-0.681,0.681-0.681c0.076,0,0.149,0.013,0.217,0.035c-0.023,0.047-0.034,0.1-0.034,0.155
							c0,0.206,0.167,0.374,0.374,0.374c0.038,0,0.075-0.006,0.11-0.017C248.25,466.97,248.255,467.015,248.255,467.061"/>
					</g>
					<g>
						<g>
							<g>
								<rect x="242.908" y="467.83" style="fill:#FFFFFF;" width="0.616" height="0.616"/>
							</g>
							<g>
								<rect x="254.827" y="467.83" style="fill:#FFFFFF;" width="0.616" height="0.616"/>
							</g>
							<g>
								<path style="fill:#FFFFFF;" d="M255.205,468.082h-0.14c0-3.248-2.642-5.89-5.89-5.89c-3.248,0-5.89,2.642-5.89,5.89h-0.14
									c0-1.611,0.627-3.125,1.766-4.264c1.139-1.139,2.653-1.766,4.264-1.766c1.611,0,3.125,0.627,4.264,1.766
									C254.578,464.957,255.205,466.471,255.205,468.082"/>
							</g>
						</g>
						<g>
							<rect x="248.868" y="461.814" style="fill:#FFFFFF;" width="0.616" height="0.616"/>
						</g>
						<g>
							<rect x="244.95" y="462.052" style="fill:#FFFFFF;" width="8.45" height="0.14"/>
						</g>
						<g>
							<path style="fill:#FFFFFF;" d="M245.174,462.15c0,0.108-0.088,0.196-0.196,0.196c-0.108,0-0.196-0.088-0.196-0.196
								c0-0.108,0.088-0.196,0.196-0.196C245.086,461.954,245.174,462.042,245.174,462.15"/>
						</g>
						<g>
							<path style="fill:#FFFFFF;" d="M253.596,462.15c0,0.108-0.088,0.196-0.196,0.196c-0.108,0-0.196-0.088-0.196-0.196
								c0-0.108,0.088-0.196,0.196-0.196C253.509,461.954,253.596,462.042,253.596,462.15"/>
						</g>
					</g>
				</g>
				<g>
					<path style="fill:#FFFFFF;" d="M314.356,473.409c0,1.559-2.364,1.559-2.364,0C311.993,471.851,314.356,471.851,314.356,473.409
						z"/>
				</g>
				<g>
					<g>
						<g>
							<path style="fill:#FFFFFF;" d="M161.739,466.549l1.772,6.088l1.855-6.088h2.215l-2.823,8.14h-2.33l-0.837-2.396l-0.722-2.708
								l-0.722,2.708l-0.837,2.396h-2.33l-2.839-8.14h2.231l1.855,6.088l1.756-6.088H161.739z"/>
						</g>
						<g>
							<path style="fill:#FFFFFF;" d="M176.713,466.549l1.772,6.088l1.855-6.088h2.215l-2.823,8.14h-2.33l-0.837-2.396l-0.722-2.708
								l-0.722,2.708l-0.837,2.396h-2.33l-2.839-8.14h2.231l1.855,6.088l1.756-6.088H176.713z"/>
						</g>
						<g>
							<path style="fill:#FFFFFF;" d="M191.687,466.549l1.772,6.088l1.855-6.088h2.215l-2.823,8.14h-2.33l-0.837-2.396l-0.722-2.708
								l-0.722,2.708l-0.837,2.396h-2.33l-2.839-8.14h2.231l1.855,6.088l1.756-6.088H191.687z"/>
						</g>
					</g>
					<g>
						<path style="fill:#FFFFFF;" d="M200.908,473.52c0,1.559-2.364,1.559-2.364,0C198.545,471.962,200.908,471.962,200.908,473.52z
							"/>
					</g>
					<g>
						<path style="fill:#FFFFFF;" d="M322.71,473.409c-0.935,0.919-1.919,1.28-3.117,1.28c-2.346,0-4.3-1.411-4.3-4.282
							s1.953-4.284,4.3-4.284c1.149,0,2.035,0.329,2.921,1.199l-1.264,1.329c-0.476-0.428-1.066-0.64-1.623-0.64
							c-1.346,0-2.33,0.985-2.33,2.396c0,1.542,1.05,2.362,2.297,2.362c0.64,0,1.28-0.18,1.772-0.672L322.71,473.409z"/>
					</g>
					<g>
						<path style="fill:#FFFFFF;" d="M331.805,470.472c0,2.33-1.591,4.217-4.217,4.217c-2.626,0-4.201-1.887-4.201-4.217
							c0-2.314,1.609-4.217,4.185-4.217C330.149,466.255,331.805,468.158,331.805,470.472z M325.389,470.472
							c0,1.231,0.739,2.38,2.199,2.38c1.46,0,2.199-1.149,2.199-2.38c0-1.215-0.854-2.396-2.199-2.396
							C326.144,468.077,325.389,469.258,325.389,470.472z"/>
					</g>
					<g>
						<path style="fill:#FFFFFF;" d="M338.572,474.689v-4.332c0-1.068-0.559-2.035-1.658-2.035c-1.082,0-1.722,0.967-1.722,2.035
							v4.332h-2.003v-8.107h1.855l0.148,0.985c0.426-0.82,1.362-1.116,2.133-1.116c0.969,0,1.937,0.394,2.396,1.51
							c0.723-1.149,1.658-1.478,2.708-1.478c2.297,0,3.43,1.412,3.43,3.84v4.365h-2.003v-4.365c0-1.066-0.442-1.97-1.526-1.97
							c-1.082,0-1.756,0.935-1.756,2.003v4.332H338.572z"/>
					</g>
				</g>
			</g>
		</g>
		<g style="opacity:0.61;">
			<g>
				<g>
					<path style="fill:#FFFFFF;" d="M345.988,431.299c-0.006-1.224-0.959-2.121-2.189-2.14c-0.924-0.014-0.832,0.12-0.834-0.867
						c-0.003-1.097-0.007-2.194,0.003-3.292c0.003-0.379-0.112-0.691-0.362-0.976c-2.342-2.668-4.678-5.342-7.019-8.011
						c-0.12-0.137-0.275-0.244-0.414-0.366c-6.214,0-12.427,0-18.641,0c-0.794,0.293-1.14,0.868-1.138,1.709
						c0.01,3.748,0.004,7.496,0.004,11.243c0,0.556-0.003,0.589-0.55,0.551c-1.497-0.102-2.516,0.986-2.497,2.492
						c0.044,3.476,0.013,6.953,0.014,10.429c0.001,1.58,0.867,2.443,2.45,2.449c0.582,0.002,0.582,0.002,0.582,0.6
						c0,2.219-0.001,4.438,0.001,6.657c0.001,1.192,0.58,1.771,1.768,1.771c8.013,0.001,16.027,0.001,24.04,0
						c1.168,0,1.755-0.583,1.757-1.745c0.002-2.256,0-4.512,0.001-6.768c0-0.512,0.002-0.511,0.52-0.515
						c0.271-0.002,0.541,0.008,0.809-0.058c0.996-0.246,1.69-1.044,1.694-2.069C346.003,438.696,346.005,434.997,345.988,431.299z
						 M317.537,417.162c5.337,0,10.674,0,16.01,0c0.548,0,0.554,0.007,0.554,0.561c0.001,2.243-0.001,4.486,0.001,6.73
						c0.001,0.811,0.249,1.059,1.06,1.059c1.91,0.001,3.821,0,5.731,0.001c0.458,0,0.479,0.021,0.481,0.483
						c0.003,0.887,0.002,1.775,0,2.662c-0.001,0.477-0.024,0.498-0.504,0.499c-3.895,0.001-7.79,0-11.684,0
						c-3.882,0-7.765,0-11.647,0c-0.55,0-0.552-0.001-0.552-0.561c-0.001-3.624-0.001-7.247,0-10.871
						C316.987,417.166,316.991,417.162,317.537,417.162z M340.822,451.579c-3.883,0.001-7.766,0-11.65,0c-3.871,0-7.742,0-11.613,0
						c-0.572,0-0.574-0.002-0.574-0.579c-0.001-1.997-0.001-3.994,0.001-5.991c0-0.464,0.023-0.486,0.478-0.487
						c7.803-0.001,15.607-0.001,23.41,0c0.478,0,0.499,0.02,0.499,0.503c0.002,1.997,0.001,3.994,0,5.991
						C341.375,451.574,341.37,451.579,340.822,451.579z"/>
				</g>
				<g>
					<g>
						<rect x="327.418" y="417.053" style="fill:#FFFFFF;" width="1.757" height="1.054"/>
					</g>
					<g>
						<rect x="325.662" y="418.107" style="fill:#FFFFFF;" width="1.757" height="1.054"/>
					</g>
					<g>
						<rect x="327.418" y="419.161" style="fill:#FFFFFF;" width="1.757" height="1.054"/>
					</g>
					<g>
						<rect x="325.662" y="420.215" style="fill:#FFFFFF;" width="1.757" height="1.054"/>
					</g>
					<g>
						<rect x="327.418" y="421.269" style="fill:#FFFFFF;" width="1.757" height="1.054"/>
					</g>
					<g>
						<rect x="325.662" y="422.323" style="fill:#FFFFFF;" width="1.757" height="1.054"/>
					</g>
					<g>
						<rect x="327.418" y="423.378" style="fill:#FFFFFF;" width="1.757" height="1.054"/>
					</g>
					<g>
						<rect x="325.662" y="424.432" style="fill:#FFFFFF;" width="1.757" height="1.054"/>
					</g>
					<g>
						<rect x="327.418" y="425.486" style="fill:#FFFFFF;" width="1.757" height="1.054"/>
					</g>
					<g>
						<rect x="325.662" y="426.54" style="fill:#FFFFFF;" width="1.757" height="1.054"/>
					</g>
					<g>
						<rect x="327.418" y="427.594" style="fill:#FFFFFF;" width="1.757" height="1.054"/>
					</g>
					<g>
						<rect x="325.662" y="428.648" style="fill:#FFFFFF;" width="1.757" height="1.054"/>
					</g>
				</g>
			</g>
			<g>
				<path style="fill:#FFFFFF;" d="M187.637,431.299c-0.006-1.224-0.959-2.121-2.189-2.14c-0.924-0.014-0.832,0.12-0.834-0.867
					c-0.003-1.097-0.007-2.194,0.003-3.292c0.003-0.379-0.112-0.691-0.362-0.976c-2.342-2.668-4.678-5.342-7.019-8.011
					c-0.12-0.137-0.275-0.244-0.414-0.366c-6.214,0-12.427,0-18.641,0c-0.794,0.293-1.14,0.868-1.138,1.709
					c0.01,3.748,0.004,7.496,0.004,11.243c0,0.556-0.003,0.589-0.55,0.551c-1.497-0.102-2.516,0.986-2.497,2.492
					c0.044,3.476,0.013,6.953,0.014,10.429c0.001,1.58,0.867,2.443,2.45,2.449c0.582,0.002,0.582,0.002,0.582,0.6
					c0,2.219-0.001,4.438,0.001,6.657c0.001,1.192,0.58,1.771,1.768,1.771c8.013,0.001,16.027,0.001,24.04,0
					c1.168,0,1.755-0.583,1.757-1.745c0.002-2.256,0-4.512,0.001-6.768c0-0.512,0.002-0.511,0.52-0.515
					c0.271-0.002,0.541,0.008,0.809-0.058c0.996-0.246,1.69-1.044,1.694-2.069C187.652,438.696,187.655,434.997,187.637,431.299z
					 M159.187,417.162c5.337,0,10.674,0,16.01,0c0.548,0,0.554,0.007,0.554,0.561c0.001,2.243-0.001,4.486,0.001,6.73
					c0.001,0.811,0.249,1.059,1.06,1.059c1.91,0.001,3.821,0,5.731,0.001c0.458,0,0.479,0.021,0.481,0.483
					c0.003,0.887,0.002,1.775,0,2.662c-0.001,0.477-0.024,0.498-0.504,0.499c-3.895,0.001-7.79,0-11.684,0
					c-3.882,0-7.765,0-11.647,0c-0.55,0-0.552-0.001-0.552-0.561c-0.001-3.624-0.001-7.247,0-10.871
					C158.636,417.166,158.64,417.162,159.187,417.162z M182.472,451.579c-3.883,0.001-7.766,0-11.65,0c-3.871,0-7.742,0-11.613,0
					c-0.572,0-0.574-0.002-0.574-0.579c-0.001-1.997-0.001-3.994,0.001-5.991c0-0.464,0.023-0.486,0.478-0.487
					c7.803-0.001,15.607-0.001,23.41,0c0.478,0,0.499,0.02,0.499,0.503c0.002,1.997,0.001,3.994,0,5.991
					C183.024,451.574,183.019,451.579,182.472,451.579z"/>
			</g>
			<g>
				<path style="fill:#FFFFFF;" d="M159.779,440.669v-7.897h2.779c0.375,0,0.726,0.061,1.053,0.182
					c0.327,0.121,0.612,0.292,0.855,0.513c0.242,0.221,0.434,0.483,0.573,0.789c0.14,0.305,0.21,0.642,0.21,1.009
					c0,0.375-0.07,0.715-0.21,1.02c-0.14,0.305-0.331,0.568-0.573,0.789c-0.243,0.221-0.528,0.392-0.855,0.513
					c-0.327,0.121-0.678,0.182-1.053,0.182h-1.29v2.901H159.779z M162.58,436.356c0.39,0,0.684-0.111,0.882-0.331
					c0.199-0.22,0.298-0.474,0.298-0.761c0-0.14-0.024-0.276-0.072-0.408c-0.048-0.132-0.121-0.248-0.221-0.347
					c-0.099-0.099-0.223-0.178-0.37-0.237c-0.147-0.059-0.32-0.089-0.518-0.089h-1.312v2.173H162.58z"/>
				<path style="fill:#FFFFFF;" d="M166.308,432.771h1.731l3.177,5.294h0.088l-0.088-1.522v-3.772h1.478v7.897h-1.566l-3.353-5.592
					h-0.088l0.088,1.522v4.07h-1.467V432.771z"/>
				<path style="fill:#FFFFFF;" d="M177.922,436.334h3.872c0.022,0.089,0.04,0.195,0.055,0.32c0.014,0.125,0.022,0.25,0.022,0.375
					c0,0.507-0.077,0.985-0.231,1.434c-0.154,0.449-0.397,0.849-0.728,1.202c-0.353,0.375-0.776,0.666-1.268,0.871
					c-0.493,0.206-1.055,0.309-1.688,0.309c-0.574,0-1.114-0.103-1.622-0.309c-0.507-0.206-0.948-0.492-1.323-0.86
					c-0.375-0.367-0.673-0.803-0.894-1.307c-0.221-0.504-0.331-1.053-0.331-1.649c0-0.595,0.11-1.145,0.331-1.649
					c0.221-0.504,0.518-0.939,0.894-1.307c0.375-0.367,0.816-0.654,1.323-0.86c0.507-0.206,1.048-0.309,1.622-0.309
					c0.64,0,1.211,0.11,1.715,0.331c0.504,0.221,0.935,0.526,1.296,0.915l-1.025,1.004c-0.258-0.272-0.544-0.48-0.861-0.623
					c-0.316-0.143-0.695-0.215-1.136-0.215c-0.361,0-0.703,0.065-1.026,0.193c-0.324,0.129-0.607,0.311-0.85,0.546
					c-0.242,0.235-0.436,0.52-0.579,0.855c-0.143,0.335-0.215,0.708-0.215,1.119c0,0.412,0.072,0.785,0.215,1.12
					c0.143,0.335,0.338,0.62,0.584,0.855c0.246,0.235,0.531,0.418,0.855,0.546c0.323,0.129,0.669,0.193,1.037,0.193
					c0.419,0,0.773-0.061,1.064-0.182c0.29-0.121,0.538-0.278,0.744-0.469c0.148-0.132,0.275-0.3,0.381-0.502
					c0.106-0.202,0.189-0.428,0.248-0.678h-2.482V436.334z"/>
			</g>
			<g>
				<path style="fill:#FFFFFF;" d="M224.019,431.299c-0.006-1.224-0.959-2.121-2.189-2.14c-0.924-0.014-0.832,0.12-0.834-0.867
					c-0.003-1.097-0.007-2.194,0.003-3.292c0.003-0.379-0.112-0.691-0.362-0.976c-2.342-2.668-4.678-5.342-7.019-8.011
					c-0.12-0.137-0.275-0.244-0.414-0.366c-6.214,0-12.427,0-18.641,0c-0.794,0.293-1.14,0.868-1.138,1.709
					c0.01,3.748,0.004,7.496,0.004,11.243c0,0.556-0.003,0.589-0.55,0.551c-1.497-0.102-2.516,0.986-2.497,2.492
					c0.044,3.476,0.013,6.953,0.014,10.429c0.001,1.58,0.867,2.443,2.45,2.449c0.582,0.002,0.582,0.002,0.582,0.6
					c0,2.219-0.001,4.438,0.001,6.657c0.001,1.192,0.58,1.771,1.768,1.771c8.013,0.001,16.027,0.001,24.04,0
					c1.168,0,1.755-0.583,1.757-1.745c0.002-2.256,0-4.512,0.001-6.768c0-0.512,0.002-0.511,0.52-0.515
					c0.271-0.002,0.541,0.008,0.809-0.058c0.997-0.246,1.69-1.044,1.694-2.069C224.034,438.696,224.036,434.997,224.019,431.299z
					 M195.568,417.162c5.337,0,10.674,0,16.01,0c0.548,0,0.554,0.007,0.554,0.561c0.001,2.243-0.001,4.486,0.001,6.73
					c0.001,0.811,0.249,1.059,1.06,1.059c1.91,0.001,3.821,0,5.731,0.001c0.458,0,0.479,0.021,0.481,0.483
					c0.003,0.887,0.002,1.775,0,2.662c-0.001,0.477-0.024,0.498-0.504,0.499c-3.895,0.001-7.79,0-11.684,0
					c-3.882,0-7.765,0-11.647,0c-0.55,0-0.552-0.001-0.552-0.561c-0.001-3.624-0.001-7.247,0-10.871
					C195.018,417.166,195.022,417.162,195.568,417.162z M218.854,451.579c-3.883,0.001-7.766,0-11.65,0c-3.871,0-7.742,0-11.613,0
					c-0.572,0-0.574-0.002-0.574-0.579c-0.001-1.997-0.001-3.994,0.001-5.991c0-0.464,0.023-0.486,0.478-0.487
					c7.803-0.001,15.607-0.001,23.41,0c0.478,0,0.499,0.02,0.499,0.503c0.002,1.997,0.001,3.994,0,5.991
					C219.406,451.574,219.401,451.579,218.854,451.579z"/>
			</g>
			<g>
				<path style="fill:#FFFFFF;" d="M205.111,432.771h1.699l2.967,7.897h-1.644l-0.651-1.886h-3.044l-0.651,1.886h-1.643
					L205.111,432.771z M206.997,437.415l-0.706-1.974l-0.287-0.96h-0.088l-0.287,0.96l-0.706,1.974H206.997z"/>
				<path style="fill:#FFFFFF;" d="M211.331,434.536c-0.125,0-0.245-0.024-0.359-0.072c-0.114-0.048-0.213-0.114-0.298-0.199
					c-0.084-0.084-0.151-0.182-0.198-0.292c-0.048-0.11-0.072-0.232-0.072-0.364s0.024-0.254,0.072-0.364
					c0.048-0.11,0.114-0.208,0.198-0.292c0.084-0.084,0.184-0.151,0.298-0.198c0.114-0.048,0.233-0.072,0.359-0.072
					c0.257,0,0.478,0.09,0.662,0.27c0.184,0.181,0.276,0.399,0.276,0.656s-0.092,0.476-0.276,0.656
					C211.809,434.446,211.589,434.536,211.331,434.536z M210.615,440.669v-5.404h1.445v5.404H210.615z"/>
			</g>
			<g>
				<path style="fill:#FFFFFF;" d="M261.044,431.299c-0.006-1.224-0.959-2.121-2.189-2.14c-0.924-0.014-0.832,0.12-0.834-0.867
					c-0.003-1.097-0.007-2.194,0.003-3.292c0.003-0.379-0.112-0.691-0.362-0.976c-2.342-2.668-4.678-5.342-7.019-8.011
					c-0.12-0.137-0.275-0.244-0.414-0.366c-6.214,0-12.427,0-18.641,0c-0.794,0.293-1.14,0.868-1.138,1.709
					c0.01,3.748,0.004,7.496,0.004,11.243c0,0.556-0.003,0.589-0.55,0.551c-1.497-0.102-2.516,0.986-2.497,2.492
					c0.044,3.476,0.013,6.953,0.014,10.429c0.001,1.58,0.867,2.443,2.45,2.449c0.582,0.002,0.582,0.002,0.582,0.6
					c0,2.219-0.001,4.438,0.001,6.657c0.001,1.192,0.58,1.771,1.768,1.771c8.013,0.001,16.027,0.001,24.04,0
					c1.168,0,1.755-0.583,1.757-1.745c0.002-2.256,0-4.512,0.001-6.768c0-0.512,0.002-0.511,0.52-0.515
					c0.271-0.002,0.541,0.008,0.809-0.058c0.996-0.246,1.69-1.044,1.694-2.069C261.059,438.696,261.061,434.997,261.044,431.299z
					 M232.593,417.162c5.337,0,10.674,0,16.01,0c0.548,0,0.554,0.007,0.554,0.561c0.001,2.243-0.001,4.486,0.001,6.73
					c0.001,0.811,0.249,1.059,1.06,1.059c1.91,0.001,3.821,0,5.731,0.001c0.458,0,0.479,0.021,0.481,0.483
					c0.003,0.887,0.002,1.775,0,2.662c-0.001,0.477-0.024,0.498-0.504,0.499c-3.895,0.001-7.79,0-11.684,0
					c-3.882,0-7.765,0-11.647,0c-0.55,0-0.552-0.001-0.552-0.561c-0.001-3.624-0.001-7.247,0-10.871
					C232.042,417.166,232.047,417.162,232.593,417.162z M255.878,451.579c-3.883,0.001-7.766,0-11.65,0c-3.871,0-7.742,0-11.613,0
					c-0.572,0-0.574-0.002-0.574-0.579c-0.001-1.997-0.001-3.994,0.001-5.991c0-0.464,0.023-0.486,0.478-0.487
					c7.803-0.001,15.607-0.001,23.41,0c0.478,0,0.499,0.02,0.499,0.503c0.002,1.997,0.001,3.994,0,5.991
					C256.431,451.574,256.426,451.579,255.878,451.579z"/>
			</g>
			<g>
				<path style="fill:#FFFFFF;" d="M236.361,440.845c-0.338,0-0.662-0.048-0.971-0.143c-0.309-0.095-0.592-0.239-0.849-0.43
					c-0.257-0.191-0.481-0.425-0.673-0.7c-0.191-0.276-0.342-0.597-0.452-0.965l1.401-0.551c0.103,0.397,0.283,0.726,0.54,0.987
					c0.257,0.261,0.596,0.392,1.015,0.392c0.154,0,0.303-0.02,0.447-0.061c0.143-0.04,0.272-0.099,0.386-0.176
					s0.204-0.175,0.27-0.292c0.066-0.118,0.099-0.254,0.099-0.408c0-0.147-0.026-0.279-0.077-0.397
					c-0.051-0.117-0.138-0.227-0.259-0.331c-0.121-0.103-0.28-0.202-0.475-0.298c-0.195-0.095-0.435-0.195-0.722-0.298l-0.485-0.176
					c-0.213-0.073-0.429-0.173-0.645-0.298c-0.217-0.125-0.413-0.276-0.59-0.452c-0.177-0.176-0.322-0.384-0.436-0.623
					c-0.114-0.239-0.171-0.509-0.171-0.81c0-0.309,0.06-0.597,0.182-0.866c0.121-0.268,0.294-0.503,0.518-0.706
					c0.224-0.202,0.492-0.36,0.805-0.474s0.66-0.171,1.042-0.171c0.397,0,0.74,0.053,1.031,0.16
					c0.291,0.107,0.537,0.243,0.739,0.408c0.202,0.165,0.366,0.348,0.491,0.546c0.125,0.199,0.217,0.386,0.276,0.563l-1.312,0.551
					c-0.074-0.221-0.208-0.419-0.402-0.596c-0.195-0.176-0.462-0.265-0.8-0.265c-0.324,0-0.592,0.075-0.805,0.226
					c-0.213,0.151-0.32,0.348-0.32,0.59c0,0.235,0.103,0.436,0.309,0.601c0.206,0.165,0.533,0.325,0.982,0.48l0.497,0.165
					c0.316,0.111,0.605,0.237,0.866,0.381c0.261,0.143,0.485,0.314,0.673,0.513c0.187,0.199,0.331,0.425,0.43,0.678
					c0.1,0.254,0.149,0.546,0.149,0.877c0,0.412-0.083,0.767-0.248,1.064c-0.165,0.298-0.377,0.542-0.634,0.734
					c-0.258,0.191-0.548,0.335-0.872,0.43C236.986,440.797,236.67,440.845,236.361,440.845z"/>
				<path style="fill:#FFFFFF;" d="M239.516,432.771h1.61l1.633,4.754l0.287,1.015h0.088l0.309-1.015l1.699-4.754h1.61l-2.879,7.897
					h-1.566L239.516,432.771z"/>
				<path style="fill:#FFFFFF;" d="M251.097,436.334h3.871c0.022,0.089,0.04,0.195,0.055,0.32c0.015,0.125,0.023,0.25,0.023,0.375
					c0,0.507-0.078,0.985-0.232,1.434c-0.154,0.449-0.397,0.849-0.728,1.202c-0.353,0.375-0.775,0.666-1.268,0.871
					c-0.493,0.206-1.055,0.309-1.688,0.309c-0.574,0-1.114-0.103-1.621-0.309c-0.507-0.206-0.949-0.492-1.324-0.86
					c-0.375-0.367-0.673-0.803-0.894-1.307c-0.22-0.504-0.331-1.053-0.331-1.649c0-0.595,0.11-1.145,0.331-1.649
					c0.221-0.504,0.518-0.939,0.894-1.307c0.375-0.367,0.816-0.654,1.324-0.86c0.507-0.206,1.047-0.309,1.621-0.309
					c0.64,0,1.211,0.11,1.715,0.331c0.504,0.221,0.936,0.526,1.296,0.915l-1.026,1.004c-0.257-0.272-0.544-0.48-0.861-0.623
					c-0.316-0.143-0.694-0.215-1.136-0.215c-0.36,0-0.702,0.065-1.026,0.193c-0.323,0.129-0.607,0.311-0.849,0.546
					c-0.243,0.235-0.436,0.52-0.579,0.855c-0.143,0.335-0.215,0.708-0.215,1.119c0,0.412,0.072,0.785,0.215,1.12
					c0.143,0.335,0.338,0.62,0.585,0.855c0.246,0.235,0.531,0.418,0.854,0.546c0.324,0.129,0.669,0.193,1.037,0.193
					c0.419,0,0.774-0.061,1.064-0.182c0.29-0.121,0.539-0.278,0.745-0.469c0.147-0.132,0.274-0.3,0.38-0.502
					c0.107-0.202,0.189-0.428,0.248-0.678h-2.482V436.334z"/>
			</g>
			<g>
				<path style="fill:#FFFFFF;" d="M297.3,431.299c-0.006-1.224-0.959-2.121-2.189-2.14c-0.924-0.014-0.832,0.12-0.834-0.867
					c-0.003-1.097-0.007-2.194,0.003-3.292c0.003-0.379-0.112-0.691-0.362-0.976c-2.342-2.668-4.678-5.342-7.019-8.011
					c-0.12-0.137-0.275-0.244-0.414-0.366c-6.214,0-12.427,0-18.641,0c-0.794,0.293-1.14,0.868-1.138,1.709
					c0.01,3.748,0.004,7.496,0.004,11.243c0,0.556-0.003,0.589-0.55,0.551c-1.497-0.102-2.516,0.986-2.497,2.492
					c0.044,3.476,0.013,6.953,0.014,10.429c0.001,1.58,0.867,2.443,2.45,2.449c0.582,0.002,0.582,0.002,0.582,0.6
					c0,2.219-0.001,4.438,0.001,6.657c0.001,1.192,0.58,1.771,1.768,1.771c8.013,0.001,16.027,0.001,24.04,0
					c1.168,0,1.755-0.583,1.757-1.745c0.002-2.256,0-4.512,0.001-6.768c0-0.512,0.002-0.511,0.52-0.515
					c0.271-0.002,0.541,0.008,0.809-0.058c0.996-0.246,1.69-1.044,1.694-2.069C297.315,438.696,297.318,434.997,297.3,431.299z
					 M268.85,417.162c5.337,0,10.674,0,16.01,0c0.548,0,0.554,0.007,0.554,0.561c0.001,2.243-0.001,4.486,0.001,6.73
					c0.001,0.811,0.249,1.059,1.06,1.059c1.91,0.001,3.821,0,5.731,0.001c0.458,0,0.479,0.021,0.481,0.483
					c0.003,0.887,0.002,1.775,0,2.662c-0.001,0.477-0.024,0.498-0.504,0.499c-3.895,0.001-7.79,0-11.684,0
					c-3.882,0-7.765,0-11.647,0c-0.55,0-0.552-0.001-0.552-0.561c-0.001-3.624-0.001-7.247,0-10.871
					C268.299,417.166,268.303,417.162,268.85,417.162z M292.135,451.579c-3.883,0.001-7.766,0-11.65,0c-3.871,0-7.742,0-11.613,0
					c-0.572,0-0.574-0.002-0.574-0.579c-0.001-1.997-0.001-3.994,0.001-5.991c0-0.464,0.023-0.486,0.478-0.487
					c7.803-0.001,15.607-0.001,23.41,0c0.478,0,0.499,0.02,0.499,0.503c0.001,1.997,0.001,3.994,0,5.991
					C292.687,451.574,292.682,451.579,292.135,451.579z"/>
			</g>
			<g>
				<path style="fill:#FFFFFF;" d="M272.966,434.183v1.831h3.165v1.412h-3.165v1.831h3.518v1.412h-5.007v-7.897h5.007v1.412H272.966
					z"/>
				<path style="fill:#FFFFFF;" d="M277.852,440.669v-7.897h2.779c0.375,0,0.726,0.061,1.053,0.182
					c0.327,0.121,0.612,0.292,0.855,0.513c0.243,0.221,0.434,0.483,0.574,0.789c0.14,0.305,0.209,0.642,0.209,1.009
					c0,0.375-0.07,0.715-0.209,1.02c-0.14,0.305-0.331,0.568-0.574,0.789c-0.243,0.221-0.528,0.392-0.855,0.513
					c-0.327,0.121-0.678,0.182-1.053,0.182h-1.29v2.901H277.852z M280.653,436.356c0.389,0,0.684-0.111,0.882-0.331
					c0.199-0.22,0.298-0.474,0.298-0.761c0-0.14-0.024-0.276-0.072-0.408c-0.048-0.132-0.121-0.248-0.221-0.347
					c-0.099-0.099-0.222-0.178-0.37-0.237c-0.147-0.059-0.32-0.089-0.518-0.089h-1.312v2.173H280.653z"/>
				<path style="fill:#FFFFFF;" d="M286.797,440.845c-0.338,0-0.662-0.048-0.971-0.143c-0.309-0.095-0.592-0.239-0.849-0.43
					c-0.257-0.191-0.482-0.425-0.673-0.7c-0.191-0.276-0.342-0.597-0.452-0.965l1.401-0.551c0.103,0.397,0.283,0.726,0.541,0.987
					c0.257,0.261,0.595,0.392,1.015,0.392c0.154,0,0.303-0.02,0.447-0.061c0.143-0.04,0.272-0.099,0.386-0.176
					c0.114-0.077,0.204-0.175,0.27-0.292c0.066-0.118,0.1-0.254,0.1-0.408c0-0.147-0.026-0.279-0.077-0.397
					c-0.051-0.117-0.138-0.227-0.259-0.331c-0.121-0.103-0.279-0.202-0.474-0.298c-0.195-0.095-0.436-0.195-0.723-0.298
					l-0.485-0.176c-0.213-0.073-0.428-0.173-0.645-0.298c-0.217-0.125-0.414-0.276-0.59-0.452c-0.176-0.176-0.322-0.384-0.436-0.623
					c-0.114-0.239-0.171-0.509-0.171-0.81c0-0.309,0.061-0.597,0.182-0.866c0.121-0.268,0.294-0.503,0.518-0.706
					c0.224-0.202,0.493-0.36,0.805-0.474c0.312-0.114,0.66-0.171,1.042-0.171c0.397,0,0.741,0.053,1.031,0.16
					c0.29,0.107,0.537,0.243,0.739,0.408c0.202,0.165,0.365,0.348,0.491,0.546c0.125,0.199,0.217,0.386,0.276,0.563l-1.312,0.551
					c-0.074-0.221-0.208-0.419-0.403-0.596c-0.195-0.176-0.462-0.265-0.799-0.265c-0.324,0-0.592,0.075-0.805,0.226
					c-0.213,0.151-0.32,0.348-0.32,0.59c0,0.235,0.103,0.436,0.309,0.601c0.206,0.165,0.533,0.325,0.982,0.48l0.496,0.165
					c0.316,0.111,0.605,0.237,0.866,0.381c0.261,0.143,0.485,0.314,0.673,0.513c0.187,0.199,0.331,0.425,0.43,0.678
					c0.099,0.254,0.149,0.546,0.149,0.877c0,0.412-0.083,0.767-0.248,1.064c-0.165,0.298-0.377,0.542-0.634,0.734
					c-0.258,0.191-0.548,0.335-0.872,0.43C287.422,440.797,287.105,440.845,286.797,440.845z"/>
			</g>
			<g>
				<path style="fill:#FFFFFF;" d="M321.394,439.168l4.004-4.985h-3.827v-1.412h5.559v1.5l-3.96,4.985h4.004v1.412h-5.779V439.168z"
					/>
				<path style="fill:#FFFFFF;" d="M328.409,432.771h1.489v7.897h-1.489V432.771z"/>
				<path style="fill:#FFFFFF;" d="M331.486,440.669v-7.897h2.779c0.375,0,0.726,0.061,1.053,0.182
					c0.327,0.121,0.612,0.292,0.855,0.513s0.434,0.483,0.574,0.789c0.14,0.305,0.209,0.642,0.209,1.009
					c0,0.375-0.07,0.715-0.209,1.02c-0.14,0.305-0.331,0.568-0.574,0.789c-0.243,0.221-0.528,0.392-0.855,0.513
					c-0.327,0.121-0.678,0.182-1.053,0.182h-1.29v2.901H331.486z M334.288,436.356c0.389,0,0.684-0.111,0.882-0.331
					c0.199-0.22,0.298-0.474,0.298-0.761c0-0.14-0.024-0.276-0.072-0.408c-0.048-0.132-0.121-0.248-0.221-0.347
					c-0.099-0.099-0.222-0.178-0.37-0.237c-0.147-0.059-0.32-0.089-0.518-0.089h-1.312v2.173H334.288z"/>
			</g>
		</g>
		<g style="opacity:0.61;">
			<path style="fill:#FFFFFF;" d="M300.133,433.27h9.067v2.242h-9.067V433.27z M300.133,437.136h9.067v2.243h-9.067V437.136z"/>
		</g>
	</g>
	<g style="opacity:0.61;">
		<path style="fill:#FFFFFF;" d="M156.756,478.878h1.607c1.263,0,2.114,0.812,2.114,1.974c0,1.161-0.851,1.973-2.114,1.973h-1.607
			V478.878z M158.34,482.464c1.049,0,1.725-0.665,1.725-1.612c0-0.947-0.677-1.613-1.725-1.613h-1.167v3.225H158.34z"/>
		<path style="fill:#FFFFFF;" d="M165.139,480.851c0-1.15,0.879-2.007,2.075-2.007c1.184,0,2.069,0.851,2.069,2.007
			c0,1.156-0.885,2.007-2.069,2.007C166.019,482.858,165.139,482.002,165.139,480.851z M168.866,480.851
			c0-0.942-0.705-1.635-1.652-1.635c-0.953,0-1.663,0.693-1.663,1.635c0,0.941,0.71,1.635,1.663,1.635
			C168.162,482.486,168.866,481.793,168.866,480.851z"/>
		<path style="fill:#FFFFFF;" d="M179.596,478.878l-1.331,3.947h-0.44l-1.156-3.366l-1.161,3.366h-0.434l-1.331-3.947h0.429
			l1.139,3.394l1.178-3.394h0.389l1.161,3.411l1.156-3.411H179.596z"/>
		<path style="fill:#FFFFFF;" d="M187.731,478.878v3.947h-0.344l-2.537-3.202v3.202h-0.417v-3.947h0.344l2.543,3.203v-3.203H187.731
			z"/>
		<path style="fill:#FFFFFF;" d="M193.093,478.878h0.417v3.586h2.21v0.361h-2.627V478.878z"/>
		<path style="fill:#FFFFFF;" d="M200.061,480.851c0-1.15,0.879-2.007,2.075-2.007c1.184,0,2.069,0.851,2.069,2.007
			c0,1.156-0.885,2.007-2.069,2.007C200.941,482.858,200.061,482.002,200.061,480.851z M203.788,480.851
			c0-0.942-0.705-1.635-1.652-1.635c-0.953,0-1.663,0.693-1.663,1.635c0,0.941,0.71,1.635,1.663,1.635
			C203.083,482.486,203.788,481.793,203.788,480.851z"/>
		<path style="fill:#FFFFFF;" d="M211.636,481.77h-2.199l-0.474,1.054h-0.434l1.804-3.947h0.412l1.804,3.947h-0.44L211.636,481.77z
			 M211.484,481.432l-0.947-2.12l-0.947,2.12H211.484z"/>
		<path style="fill:#FFFFFF;" d="M217.28,478.878h1.607c1.263,0,2.114,0.812,2.114,1.974c0,1.161-0.851,1.973-2.114,1.973h-1.607
			V478.878z M218.864,482.464c1.049,0,1.725-0.665,1.725-1.612c0-0.947-0.677-1.613-1.725-1.613h-1.167v3.225H218.864z"/>
		<path style="fill:#FFFFFF;" d="M234.041,481.77h-2.199l-0.474,1.054h-0.434l1.804-3.947h0.412l1.804,3.947h-0.44L234.041,481.77z
			 M233.889,481.432l-0.947-2.12l-0.947,2.12H233.889z"/>
		<path style="fill:#FFFFFF;" d="M239.685,478.878h0.417v3.586h2.21v0.361h-2.627V478.878z"/>
		<path style="fill:#FFFFFF;" d="M247.082,478.878h0.417v3.586h2.21v0.361h-2.627V478.878z"/>
		<path style="fill:#FFFFFF;" d="M260.449,479.239v1.551h2.041v0.361h-2.041v1.675h-0.417v-3.947h2.706v0.361H260.449z"/>
		<path style="fill:#FFFFFF;" d="M267.678,478.878h0.417v3.947h-0.417V478.878z"/>
		<path style="fill:#FFFFFF;" d="M273.456,478.878h0.417v3.586h2.21v0.361h-2.627V478.878z"/>
		<path style="fill:#FFFFFF;" d="M283.644,482.464v0.361h-2.791v-3.947h2.706v0.361h-2.289v1.404h2.041v0.355h-2.041v1.466H283.644z
			"/>
		<path style="fill:#FFFFFF;" d="M294.672,479.239v1.551h2.041v0.361h-2.041v1.675h-0.417v-3.947h2.706v0.361H294.672z"/>
		<path style="fill:#FFFFFF;" d="M301.5,480.851c0-1.15,0.879-2.007,2.075-2.007c1.184,0,2.069,0.851,2.069,2.007
			c0,1.156-0.885,2.007-2.069,2.007C302.379,482.858,301.5,482.002,301.5,480.851z M305.226,480.851
			c0-0.942-0.705-1.635-1.652-1.635c-0.953,0-1.663,0.693-1.663,1.635c0,0.941,0.71,1.635,1.663,1.635
			C304.522,482.486,305.226,481.793,305.226,480.851z"/>
		<path style="fill:#FFFFFF;" d="M313.351,482.825l-0.902-1.269c-0.102,0.011-0.203,0.017-0.316,0.017h-1.06v1.252h-0.417v-3.947
			h1.477c1.004,0,1.613,0.507,1.613,1.353c0,0.62-0.327,1.054-0.902,1.24l0.964,1.353H313.351z M313.328,480.231
			c0-0.632-0.417-0.992-1.207-0.992h-1.048v1.979h1.048C312.911,481.218,313.328,480.851,313.328,480.231z"/>
		<path style="fill:#FFFFFF;" d="M322.907,478.878v3.947h-0.4v-3.158l-1.551,2.656h-0.197l-1.551-2.639v3.14h-0.4v-3.947h0.344
			l1.714,2.926l1.697-2.926H322.907z"/>
		<path style="fill:#FFFFFF;" d="M330.744,481.77h-2.199l-0.473,1.054h-0.434l1.804-3.947h0.411l1.804,3.947h-0.44L330.744,481.77z
			 M330.592,481.432l-0.947-2.12l-0.947,2.12H330.592z"/>
		<path style="fill:#FFFFFF;" d="M336.957,479.239h-1.387v-0.361h3.192v0.361h-1.387v3.586h-0.417V479.239z"/>
		<path style="fill:#FFFFFF;" d="M343.063,482.346l0.164-0.321c0.282,0.276,0.784,0.479,1.302,0.479c0.739,0,1.06-0.31,1.06-0.699
			c0-1.083-2.43-0.417-2.43-1.877c0-0.581,0.451-1.083,1.455-1.083c0.446,0,0.908,0.13,1.224,0.35l-0.141,0.333
			c-0.338-0.22-0.733-0.327-1.083-0.327c-0.722,0-1.043,0.321-1.043,0.716c0,1.083,2.43,0.429,2.43,1.866
			c0,0.581-0.462,1.077-1.472,1.077C343.937,482.858,343.356,482.65,343.063,482.346z"/>
	</g>
</g>
<g>
</g>
<g>
	<path style="fill:#FFFF01;stroke:#000000;stroke-width:0.8816;" d="M301.032,179.392c-3.735-3.599-8.165-0.97-8.165-0.97
		c-1.318,0.907-2.779-0.05-3.749-0.974c-3.098-4.759-7.382-8.355-11.981-11.081c-0.271-0.592-0.334-1.276,0.367-1.785
		c1.521-1.108,5.259-8.721,0.137-10.104c-5.121-1.385-2.767,4.568-1.522,4.43c0,0,1.888,4.87-5.119,4.366
		c-9.636-4.112-19.007-4.654-20.791-4.721v-0.01c0,0-0.064,0.001-0.164,0.004c-0.101-0.003-0.165-0.004-0.165-0.004v0.01
		c-1.784,0.067-11.153,0.609-20.79,4.721c-7.008,0.505-5.12-4.366-5.12-4.366c1.246,0.139,3.599-5.815-1.522-4.43
		c-5.121,1.384-1.384,8.996,0.138,10.104c0.701,0.509,0.637,1.193,0.367,1.785c-4.6,2.727-8.882,6.322-11.981,11.081
		c-0.97,0.924-2.431,1.881-3.749,0.974c0,0-4.429-2.629-8.166,0.97c0,0-3.184,3.183-2.077,4.428
		c1.107,1.245,2.491,0.691,4.291-0.691c1.799-1.385,4.364-0.187,6.265,1.567c0,0,3.652,4.017,0,9.129c0,0-0.001,4.383,3.651,2.191
		l5.113-1.461c0,0,1.826,0.731,2.191,3.287l3.287,8.764c0,0-0.365,0.731,4.017,1.095c0,0,5.477,13.876,15.701,15.116
		c0,0,1.461,19.941,3.287,23.226c0,0,1.825,3.651-1.826,1.827c0,0-8.764-17.893-8.398-23.37l-6.208-2.557l-1.461,6.573
		c0,0,11.686,10.224,15.337,20.814c0,0,1.825,4.383-2.557,1.096c0,0-12.049-12.415-15.701-15.337l-0.731,4.017
		c0,0,20.814,16.066,24.831,19.719c0,0,1.825-2.92-1.095-8.764c0,0-1.826-17.892-1.461-23.734c0,0-1.13-2.097,4.368-1.709v0.02
		c0.059-0.006,0.106-0.006,0.165-0.012c0.058,0.006,0.105,0.006,0.164,0.012v-0.02c5.498-0.388,4.368,1.709,4.368,1.709
		c0.366,5.842-1.46,23.734-1.46,23.734c-2.92,5.844-1.095,8.764-1.095,8.764c4.017-3.652,24.831-19.719,24.831-19.719l-0.732-4.017
		c-3.652,2.922-15.7,15.337-15.7,15.337c-4.382,3.287-2.557-1.096-2.557-1.096c3.652-10.59,15.337-20.814,15.337-20.814
		l-1.461-6.573l-6.207,2.557c0.365,5.476-8.398,23.37-8.398,23.37c-3.652,1.824-1.827-1.827-1.827-1.827
		c1.827-3.285,3.288-23.226,3.288-23.226c10.224-1.239,15.7-15.116,15.7-15.116c4.382-0.364,4.017-1.095,4.017-1.095l3.287-8.764
		c0.366-2.556,2.19-3.287,2.19-3.287l5.113,1.461c3.652,2.192,3.651-2.191,3.651-2.191c-3.652-5.112,0-9.129,0-9.129
		c1.901-1.754,4.466-2.953,6.265-1.567c1.801,1.382,3.183,1.936,4.291,0.691C304.217,182.575,301.032,179.392,301.032,179.392z"/>
	<g>
		<path d="M323.969,64.486c39.863,14.759,73.963,40.826,98.616,75.382c25.2,35.329,38.521,76.942,38.521,120.343
			c0,115.197-94.701,208.918-211.106,208.918c-116.404,0-211.106-93.721-211.106-208.918c0-42.887,13.033-84.094,37.687-119.166
			c24.098-34.281,57.53-60.394,96.68-75.516l-1.935-3.323l-0.137,0.112l0.284-0.194c-53.614,29.992-86.919,87.912-86.919,151.16
			c0,94.577,73.993,171.523,164.942,171.523c90.946,0,164.938-76.946,164.938-171.523c0-64.225-34.059-122.559-88.886-152.236
			l0.965,2.167L323.969,64.486z M323.693,64.473c53.568,28.996,86.845,86.017,86.845,148.811
			c0,92.429-72.243,167.629-161.044,167.629c-88.801,0-161.047-75.2-161.047-167.629c0-61.839,32.541-118.457,84.925-147.76
			l0.15-0.085l0.133-0.109l0.137-0.112l-1.936-3.321c-39.871,15.4-73.919,41.995-98.463,76.908
			C48.276,174.538,35,216.519,35,260.211c0,117.345,96.448,212.813,214.999,212.813C368.552,473.024,465,377.556,465,260.211
			c0-44.217-13.57-86.612-39.247-122.603c-25.106-35.196-59.836-61.743-100.434-76.773l-2.056-0.763l-0.512,2.133l-0.351,1.455
			C322.377,63.76,323.693,64.473,323.693,64.473z"/>
	</g>
	<path d="M359.454,84.229c35.658,31.844,58.248,78.887,58.248,131.421c0,95.919-75.216,173.663-168.018,173.663
		c-92.808,0-168.05-77.744-168.05-173.663c0-52.532,22.604-99.572,58.259-131.415c-59.116,36.325-98.491,101.061-98.491,174.924
		c0,113.697,93.246,205.856,208.281,205.856c115.029,0,208.258-92.16,208.258-205.856
		C457.942,185.293,418.572,120.546,359.454,84.229z"/>
	<path style="fill:#FFFF01;stroke:#000000;stroke-width:0.8816;" d="M249.096,26.976c0,0-6.644,5.261-2.215,15.779
		c0.692,2.353,0.001,4.43-1.246,3.599c0,0-4.428-4.153-8.027-4.567c0,0,0.276,10.934,8.996,13.703c0,0,0.919-0.096,1.529,0.755
		v2.931c-0.432,0.423-1.193,0.895-2.222,0.467c-1.661-0.691-3.184-4.014-8.443-3.183c0,0-0.277,8.721,8.581,11.35
		c1.04,0.095,1.685,0.392,2.083,1.094l-0.001,3.289c-0.269,0.395-0.79,0.731-1.805,0.185c-1.799-0.968-5.537-2.076-8.167-2.076
		c0,0-0.138,7.751,7.613,11.073c1.221,0.488,1.954,0.598,2.358,0.883v4.071c-0.263,0.324-0.687,0.582-1.39,0.582
		c-1.937,0-0.968-2.629-8.442-2.075c0,0,1.937,7.75,8.996,10.38c0.378,0.103,0.644,0.249,0.834,0.424l-0.001,5.501
		c-0.401,0.203-1.075,0.314-2.217,0.165c-3.184-0.416-3.461-1.522-7.336-1.799c0,0,0.83,8.027,8.166,11.487
		c0,0,0.813-0.102,1.386,0.537l-0.001,6.512c-1.091,0.012-2.627,0.143-3.463,0.728c0,0,0.97,4.982-2.767,5.952
		c0,0-2.353-0.553-2.63-2.215l-2.724,0.273c-2.265-3.151-5.108-7.913-7.383-14.206c0.117-0.764,0.488-1.597,1.39-2.286
		c2.353-1.799,4.429-4.707,0.968-5.813c-3.46-1.107-4.013,1.384-5.535-0.554c-0.97-1.384,0.415-2.353,0.83-2.769
		c0.415-0.414,2.014-6.432-1.661-10.104c-1.107-1.105-0.554-1.936-0.139-2.49c0.416-0.554,4.43-4.29,0.97-6.09
		c-3.461-1.799-3.322-0.83-3.045-3.183c0.277-2.353-0.416-4.568-2.077-6.92c-0.83-0.97-1.244-3.876,1.661-4.984
		c2.907-1.108,4.845-2.907,2.215-5.261c-2.374-2.123-2.604-1.429-2.627-1.274c0.036-0.309,0.864-7.933-4.017-11.459
		c0,0-5.121,5.676-2.768,11.904c0,0-6.09,4.291-1.246,6.506c2.11,0.965,2.96,1.247,3.246,1.257c0.314,0.716,0.827,2.145,0.215,2.757
		c-0.831,0.831-0.969,5.536,0.415,8.858c0.553,1.107-0.415,1.938-0.415,1.938s-4.984,2.63-0.97,5.813
		c0.83,0.83,3.046,1.798,4.43,1.661c0.692,0,0.553,0.554,0.138,1.661c-0.415,1.107-2.629,6.505,2.492,11.627
		c1.107,1.247,0.139,1.384-0.415,2.076c0,0-4.984,1.524-3.599,4.014c1.384,2.49,2.242,2.606,5.952,2.076
		c0.704-0.087,1.516,0.383,2.159,0.986c2.691,7.684,6.203,13.123,8.694,16.345c0.502,0.891,1.237,1.989,2.155,2.765
		c0,0,0.693,1.939-0.553,2.769c0,0-1.938,0.968-3.737-0.277v3.46c0,0,5.121-1.108,3.875,2.63c0,0,0.053,1.306-0.695,1.878
		c-3.636-0.815-6.945-2.46-9.956-4.698c-0.017-0.528,0.043-1.091,0.298-1.511c0.645-1.066,4.446-6.048-1.772-11.975
		c0,0-2.544,3.959-2.682,6.865c0,0-0.219,1.764-2.436,0.302c-1.14-1.359-2.226-2.798-3.256-4.304
		c0.081-0.309,0.201-0.599,0.382-0.821c0.73-0.901,4.842-4.971,0.152-11.78c0,0-3.009,2.762-3.424,6.085c0,0-0.162,0.628-0.624,0.78
		c-1.469-2.659-2.81-5.421-4.015-8.207c0.165-0.497,0.407-0.989,0.762-1.293c0.97-0.831,6.229-4.43,2.492-12.733
		c0,0-4.429,3.46-4.29,6.229c0,0-0.827,0.894-1.979,0.101c-0.986-2.778-1.852-5.494-2.603-8.062
		c0.115-0.392,0.312-0.693,0.568-0.897c7.336-4.707,5.398-13.703,5.398-13.703c-2.491,0.968-4.707,4.43-6.367,6.09
		c-0.75,0.751-1.358,0.593-1.801,0.2c-0.582-2.452-1.029-4.567-1.346-6.179c0.445-0.843,1.221-1.826,2.593-2.741
		c3.322-2.213,5.121-7.888,4.014-11.349c0,0-3.46,0.831-5.952,4.845c0,0-0.831,1.245-1.799-0.416c0,0,3.184-12.042-5.398-16.747
		c0,0-4.568,6.92,1.107,15.502c1.107,1.661,0.968,3.735-1.385,2.767c-2.353-0.968-3.045-1.938-5.675-2.353
		c0,0,3.461,8.996,8.167,9.55c1.055,0,2.298,0.478,3.06,1.455c0.236,1.238,0.542,2.748,0.916,4.45
		c-0.129,0.719-0.626,2.909-1.901,2.677c-1.522-0.277-4.43-2.769-7.475-0.97c0,0,2.174,5.528,11.821,8.065
		c0.702,2.487,1.517,5.113,2.429,7.78c-0.039,0.709-0.244,1.932-1.238,1.734c-1.384-0.277-4.707-1.938-8.582-1.799
		c0,0,2.63,8.719,10.52,8.167c0.981,0,1.86,0.054,2.533,0.35c1.073,2.495,2.203,4.826,3.377,7.026l-0.004,0.073
		c0,0,0.529,2.203-0.752,2.181c-1.282-0.022-4.519-0.964-7.958-0.208c0,0,3.769,7.36,10.726,5.58
		c1.043-0.191,1.97-0.287,2.674,0.022c1.285,1.815,2.616,3.473,3.983,4.989c-0.03,0.429-0.216,0.806-0.758,0.901
		c-1.396,0.245-5.071-0.038-8.686,1.443c0,0,5.309,6.678,12.577,3.426c0.897-0.332,1.719-0.586,2.435-0.582
		c3.323,2.538,6.822,4.288,10.455,5.218l0.399,0.75c0,0,3.046-0.554,3.599,0.83c0,0,1.245,1.661,0,2.769
		c0,0,0.688,1.239,2.844,3.001c0.625,1.954-0.514,3.881-1.371,5.762c-1.294,2.84-0.133,5.63,1.322,8.232
		c-0.052-0.092,1.508-0.922,1.407-1.099c-1.513-2.708-2.482-5.3-1.321-8.234c0.623-1.576,1.573-3.097,1.565-4.67l0.121-0.086
		c0,0,2.216-1.384,2.907,0.553c0,0,0.138,0.656,1.107,0.951c0.97-0.294,1.107-0.951,1.107-0.951c0.69-1.936,2.907-0.553,2.907-0.553
		l0.121,0.086c-0.007,1.573,0.942,3.094,1.566,4.67c1.161,2.934,0.191,5.526-1.321,8.234c-0.101,0.178,1.458,1.008,1.406,1.099
		c1.457-2.603,2.617-5.392,1.322-8.232c-0.857-1.881-1.996-3.808-1.371-5.762c2.157-1.761,2.843-3.001,2.843-3.001
		c-1.245-1.108,0-2.769,0-2.769c0.554-1.384,3.6-0.83,3.6-0.83l0.4-0.75c3.633-0.93,7.133-2.68,10.454-5.218
		c0.717-0.004,1.538,0.249,2.435,0.582c7.268,3.252,12.577-3.426,12.577-3.426c-3.615-1.481-7.289-1.198-8.684-1.443
		c-0.542-0.095-0.729-0.472-0.76-0.901c1.368-1.516,2.699-3.174,3.983-4.989c0.704-0.309,1.631-0.213,2.674-0.022
		c6.956,1.78,10.726-5.58,10.726-5.58c-3.438-0.755-6.677,0.187-7.958,0.208c-1.28,0.022-0.752-2.181-0.752-2.181l-0.003-0.073
		c1.172-2.2,2.302-4.532,3.375-7.026c0.674-0.296,1.553-0.35,2.534-0.35c7.89,0.553,10.52-8.167,10.52-8.167
		c-3.875-0.139-7.197,1.522-8.582,1.799c-0.994,0.198-1.2-1.025-1.238-1.734c0.911-2.667,1.726-5.293,2.429-7.78
		c9.647-2.537,11.819-8.065,11.819-8.065c-3.044-1.799-5.95,0.693-7.474,0.97c-1.274,0.232-1.772-1.958-1.9-2.677
		c0.373-1.702,0.68-3.212,0.916-4.45c0.763-0.977,2.005-1.455,3.06-1.455c4.705-0.554,8.167-9.55,8.167-9.55
		c-2.629,0.416-3.322,1.385-5.675,2.353c-2.353,0.968-2.492-1.107-1.384-2.767c5.675-8.582,1.107-15.502,1.107-15.502
		c-8.581,4.705-5.398,16.747-5.398,16.747c-0.968,1.661-1.799,0.416-1.799,0.416c-2.492-4.014-5.952-4.845-5.952-4.845
		c-1.107,3.461,0.693,9.136,4.014,11.349c1.372,0.916,2.149,1.898,2.594,2.741c-0.318,1.612-0.764,3.727-1.346,6.179
		c-0.443,0.394-1.051,0.551-1.801-0.2c-1.661-1.661-3.877-5.122-6.369-6.09c0,0-1.938,8.996,5.399,13.703
		c0.255,0.204,0.452,0.505,0.567,0.897c-0.751,2.568-1.617,5.284-2.603,8.062c-1.152,0.793-1.979-0.101-1.979-0.101
		c0.137-2.769-4.291-6.229-4.291-6.229c-3.737,8.304,1.522,11.902,2.492,12.733c0.354,0.305,0.596,0.796,0.761,1.293
		c-1.204,2.786-2.544,5.548-4.014,8.207c-0.462-0.152-0.624-0.78-0.624-0.78c-0.416-3.323-3.424-6.085-3.424-6.085
		c-4.689,6.809-0.577,10.879,0.152,11.78c0.181,0.222,0.302,0.512,0.382,0.821c-1.029,1.506-2.117,2.945-3.256,4.304
		c-2.216,1.462-2.435-0.302-2.435-0.302c-0.14-2.906-2.683-6.865-2.683-6.865c-6.217,5.927-2.418,10.909-1.772,11.975
		c0.255,0.42,0.316,0.983,0.299,1.511c-3.012,2.238-6.322,3.883-9.957,4.698c-0.748-0.572-0.695-1.878-0.695-1.878
		c-1.245-3.738,3.876-2.63,3.876-2.63v-3.46c-1.799,1.245-3.737,0.277-3.737,0.277c-1.247-0.83-0.554-2.769-0.554-2.769
		c0.919-0.776,1.654-1.874,2.157-2.765c2.49-3.222,6.003-8.661,8.694-16.345c0.642-0.602,1.454-1.073,2.158-0.986
		c3.711,0.529,4.568,0.414,5.952-2.076c1.385-2.49-3.599-4.014-3.599-4.014c-0.554-0.693-1.524-0.83-0.416-2.076
		c5.121-5.122,2.906-10.52,2.492-11.627c-0.416-1.107-0.554-1.661,0.139-1.661c1.382,0.137,3.599-0.831,4.43-1.661
		c4.014-3.183-0.97-5.813-0.97-5.813s-0.97-0.831-0.416-1.938c1.384-3.321,1.245-8.027,0.416-8.858
		c-0.612-0.612-0.101-2.041,0.214-2.757c0.286-0.01,1.136-0.292,3.246-1.257c4.844-2.215-1.245-6.506-1.245-6.506
		c2.352-6.227-2.769-11.904-2.769-11.904c-4.88,3.526-4.053,11.15-4.017,11.459c-0.023-0.155-0.254-0.849-2.627,1.274
		c-2.629,2.353-0.691,4.152,2.215,5.261c2.906,1.108,2.492,4.014,1.662,4.984c-1.661,2.352-2.353,4.567-2.078,6.92
		c0.278,2.353,0.416,1.384-3.044,3.183c-3.46,1.801,0.554,5.536,0.97,6.09c0.414,0.554,0.968,1.385-0.14,2.49
		c-3.674,3.673-2.075,9.69-1.661,10.104c0.415,0.416,1.801,1.385,0.831,2.769c-1.522,1.938-2.076-0.553-5.536,0.554
		c-3.46,1.107-1.384,4.014,0.97,5.813c0.903,0.69,1.273,1.522,1.39,2.286c-2.275,6.293-5.118,11.055-7.384,14.206l-2.724-0.273
		c-0.277,1.662-2.63,2.215-2.63,2.215c-3.737-0.97-2.767-5.952-2.767-5.952c-0.836-0.585-2.372-0.716-3.463-0.728l-0.001-6.512
		c0.574-0.639,1.386-0.537,1.386-0.537c7.336-3.46,8.165-11.487,8.165-11.487c-3.874,0.277-4.151,1.384-7.336,1.799
		c-1.142,0.149-1.815,0.038-2.216-0.165l-0.001-5.501c0.19-0.175,0.456-0.321,0.833-0.424c7.059-2.63,8.996-10.38,8.996-10.38
		c-7.474-0.554-6.506,2.075-8.442,2.075c-0.703,0-1.126-0.258-1.389-0.582v-4.071c0.405-0.286,1.137-0.395,2.358-0.883
		c7.75-3.322,7.611-11.073,7.611-11.073c-2.629,0-6.366,1.108-8.165,2.076c-1.016,0.545-1.537,0.21-1.806-0.185l-0.001-3.289
		c0.398-0.701,1.044-0.999,2.082-1.094c8.859-2.629,8.581-11.35,8.581-11.35c-5.259-0.831-6.781,2.492-8.442,3.183
		c-1.029,0.429-1.79-0.044-2.222-0.467v-2.931c0.609-0.851,1.529-0.755,1.529-0.755c8.721-2.769,8.996-13.703,8.996-13.703
		c-3.599,0.414-8.028,4.567-8.028,4.567c-1.245,0.831-1.936-1.245-1.245-3.599c4.43-10.518-2.214-15.779-2.214-15.779H249.096z
		 M249.369,143.544c-3.822,0-6.921-4.594-6.921-10.262c0-5.667,3.098-10.262,6.921-10.262c3.822,0,6.921,4.594,6.921,10.262
		C256.29,138.95,253.192,143.544,249.369,143.544z"/>
	<path style="fill:#FFFF01;stroke:#000000;stroke-width:0.8816;" d="M252.349,133.654c0,1.454-1.18,2.633-2.633,2.633
		s-2.632-1.18-2.632-2.633c0-1.454,1.178-2.633,2.632-2.633S252.349,132.2,252.349,133.654z"/>
	<path style="fill:#FFFF01;stroke:#000000;stroke-width:0.8816;" d="M289.366,181.306c0,0-4.844-10.518-17.44-16.056
		c-2.629-0.968-6.92-0.414-9.135,2.216c-2.215,2.627-3.599,1.799-3.323,0.414c0.278-1.384,1.801-3.876,1.801-3.876
		s0.996-3.094-2.213-3.044c-2.155,0.032-3.739,1.799-3.739,1.799s-4.151,3.876-2.076,5.536c1.366,1.229-0.567,5.064-3.278,5.178
		c-2.71-0.114-4.645-3.948-3.279-5.178c2.076-1.661-2.076-5.536-2.076-5.536s-1.584-1.767-3.737-1.799
		c-3.211-0.05-2.215,3.044-2.215,3.044s1.522,2.492,1.799,3.876c0.277,1.385-1.107,2.213-3.322-0.414
		c-2.215-2.63-6.505-3.185-9.135-2.216c-12.596,5.538-17.439,16.056-17.439,16.056c-0.276,1.198,0.276,1.712,0.276,1.712
		c2.683,1.314,4.451-1.085,6.278-2.283c1.826-1.199,3.025-0.627,4.509,0.572c1.484,1.198,3.311,0.685,5.422-1.428
		c2.111-2.113,4.281-0.343,5.308,0.286c1.028,0.628,1.769,1.598,3.311-0.057c1.541-1.655,3.311-3.425,4.338-3.082
		c1.027,0.343,2.683,0.513,4.338,2.34c1.656,1.825,3.539-0.114,4.167-0.914c0.519-0.661,1.226-1.082,1.457-1.21
		c0.231,0.128,0.938,0.55,1.457,1.21c0.627,0.8,2.512,2.74,4.167,0.914c1.656-1.827,3.311-1.998,4.338-2.34
		c1.028-0.343,2.797,1.427,4.338,3.082c1.541,1.655,2.282,0.685,3.31,0.057c1.028-0.628,3.198-2.398,5.309-0.286
		c2.113,2.113,3.938,2.626,5.423,1.428c1.484-1.198,2.683-1.77,4.508-0.572c1.827,1.198,3.596,3.597,6.278,2.283
		C289.091,183.018,289.642,182.505,289.366,181.306z"/>
	<path style="fill:#FFFF01;stroke:#000000;stroke-width:0.8816;" d="M250.134,188.299c11.501-0.703,33.887,3.555,35.542,4.236
		c1.655,0.681,2.878,0.226,2.878-0.984c0-1.21-0.287-3.025-0.287-3.025c-1.583-1.664-5.131-3.693-5.131-3.693
		c-1.827-1.258-3.027-0.659-4.51,0.601c-1.484,1.26-3.311,0.72-5.423-1.5c-2.113-2.221-4.281-0.359-5.309,0.302
		c-1.026,0.659-1.769,1.68-3.31-0.061c-1.541-1.739-3.31-3.6-4.338-3.24c-1.026,0.36-2.681,0.539-4.338,2.46
		c-1.655,1.92-3.539-0.12-4.167-0.961c-0.627-0.84-1.54-0.817-1.54-0.817h-0.31c0,0-0.914-0.023-1.541,0.817
		c-0.627,0.841-2.511,2.881-4.167,0.961c-1.656-1.92-3.311-2.1-4.337-2.46c-1.028-0.36-2.796,1.5-4.338,3.24
		c-1.541,1.741-2.283,0.72-3.31,0.061c-1.029-0.661-3.198-2.522-5.31-0.302c-2.112,2.221-3.938,2.76-5.422,1.5
		c-1.484-1.26-2.682-1.859-4.508-0.601c0,0-3.549,2.03-5.132,3.693c0,0-0.288,1.815-0.288,3.025c0,1.21,1.223,1.665,2.878,0.984
		c1.655-0.681,21.886-4.769,35.542-4.236"/>
	<path style="fill:#FFFF01;stroke:#000000;stroke-width:0.8816;" d="M235.402,193.789l1.399,8.143c0,0-0.165,1.481,2.632,1.481
		c0,0,2.633,0.082,2.633-1.563l-0.082-7.486c0,0,0.164-2.304-1.81-2.304C238.199,192.061,235.238,191.815,235.402,193.789z"/>
	<path style="fill:#FFFF01;stroke:#000000;stroke-width:0.8816;" d="M223.888,195.571l1.971,7.761c0,0-0.158,1.263,2.632,1.069
		c0,0,2.17,0.16,2.057-1.48l-0.599-7.462c0,0,0.005-2.31-1.965-2.174C226.015,193.421,224.297,193.789,223.888,195.571z"/>
	<path style="fill:#FFFF01;stroke:#000000;stroke-width:0.8816;" d="M265.457,193.789l-1.398,8.143c0,0,0.163,1.481-2.633,1.481
		c0,0-2.632,0.082-2.632-1.563l0.082-7.486c0,0-0.165-2.304,1.809-2.304C262.659,192.061,265.622,191.815,265.457,193.789z"/>
	<path style="fill:#FFFF01;stroke:#000000;stroke-width:0.8816;" d="M276.97,195.571l-1.971,7.761c0,0,0.159,1.263-2.632,1.069
		c0,0-2.171,0.16-2.057-1.48l0.599-7.462c0,0-0.004-2.31,1.964-2.174C274.844,193.421,276.562,193.789,276.97,195.571z"/>
	<path style="fill:#FFFF01;stroke:#000000;stroke-width:0.8816;" d="M249.991,203.249l1.497-0.08c2.24-0.163,2.04-1.811,2.04-1.811
		s0.165-5.924,0.165-7.404c0-1.481-0.083-1.481-0.822-2.057c-0.741-0.576-2.057-0.576-2.057-0.576h-0.768c0,0-1.317,0-2.057,0.576
		c-0.741,0.576-0.823,0.576-0.823,2.057c0,1.48,0.165,7.404,0.165,7.404s-0.199,1.648,2.039,1.811l1.498,0.08"/>
	<path style="fill:#FFFF01;stroke:#000000;stroke-width:0.8816;" d="M253.499,161.497c-1.248-1.128-3.432-0.958-3.432-0.958
		s-2.182-0.171-3.431,0.958c-1.656,1.496,1.495,3.82,1.772,3.931c0.276,0.111,0.403,0.535,1.66,0.535
		c1.258,0,1.383-0.424,1.661-0.535C252.005,165.317,255.156,162.993,253.499,161.497z"/>
	<path style="fill:#FFFF01;stroke:#000000;stroke-width:0.8816;" d="M267.819,207.369c-2.805-1.578-17.712-1.564-17.712-1.564
		s-14.905-0.013-17.711,1.564c-2.806,1.578-1.227,2.629-0.701,4.033c0.526,1.403,5.786,9.816,18.412,9.994
		c12.626-0.178,17.887-8.591,18.412-9.994C269.045,209.998,270.624,208.947,267.819,207.369z"/>
	<g>
		<g>
			<path style="fill:#FFFF01;" d="M171.945,260.727c-0.7,0-1.267,0.566-1.267,1.267c0,0.7,0.567,1.267,1.267,1.267
				c0.7,0,1.268-0.567,1.268-1.267C173.213,261.293,172.645,260.727,171.945,260.727z M174.036,249.931
				c-0.523-0.2-1.453,0.954-2.078,2.576c-0.625,1.623-0.709,3.104-0.187,3.304c0.523,0.203,1.454-0.952,2.078-2.575
				C174.474,251.613,174.558,250.133,174.036,249.931z M171.78,268.169c-0.56,0-1.013,1.411-1.013,3.149
				c0,1.739,0.454,3.151,1.013,3.151c0.56,0,1.013-1.412,1.013-3.151C172.794,269.58,172.34,268.169,171.78,268.169z
				 M163.156,250.703c-0.433,0.354,0.108,1.734,1.209,3.081c1.1,1.347,2.344,2.153,2.778,1.799c0.434-0.356-0.108-1.735-1.208-3.081
				C164.834,251.155,163.589,250.348,163.156,250.703z M233.458,259.816c-2.707,1.739-0.966,4.835-0.966,4.835
				c-7.156,0.968-17.987,5.802-17.987,5.802c1.547,0.774,2.32,3.868,8.703,0.58c6.382-3.288,19.534-6.189,19.534-6.189l1.161-1.935
				c-8.318-6.382-26.497-15.858-26.497-15.858c-1.161,0.192-3.289,2.127-3.289,2.127
				C218.372,248.403,233.458,259.816,233.458,259.816z M170.79,301.933c-2.708-0.271-3.465,1.815-3.631,2.971
				c0,0-4.291,2.31-7.592-4.952c0,0,2.311,13.863,13.039,8.088C174.752,306.226,174.091,302.264,170.79,301.933z M161.543,296.229
				c0.377-0.414-0.114-1.476-1.097-2.371c-0.983-0.894-2.086-1.285-2.463-0.87c-0.377,0.414,0.115,1.476,1.097,2.369
				C160.064,296.254,161.167,296.643,161.543,296.229z M163.716,289.869c0.073-0.556-0.937-1.145-2.255-1.32
				c-1.317-0.173-2.446,0.136-2.519,0.69c-0.074,0.556,0.937,1.146,2.254,1.32C162.514,290.732,163.643,290.425,163.716,289.869z
				 M204.447,260.976c1.161,0.58,4.255,4.061,9.283,2.9c5.029-1.161,17.794-2.127,17.794-2.127
				c-4.062-2.706-21.275-5.221-21.275-5.221C207.542,256.914,204.447,260.976,204.447,260.976z M146.1,292.896
				c-1.088,0.764-1.709,1.754-1.387,2.213c0.322,0.458,1.465,0.208,2.553-0.556c1.087-0.763,1.709-1.756,1.387-2.213
				C148.33,291.883,147.188,292.132,146.1,292.896z M147.728,287.889c0.042-0.558-1-1.092-2.326-1.193
				c-1.325-0.098-2.434,0.273-2.477,0.831c-0.042,0.557,0.999,1.091,2.325,1.191C146.576,288.818,147.685,288.446,147.728,287.889z
				 M153.982,278.377c-0.56,0-1.013,1.079-1.013,2.407c0,1.33,0.454,2.407,1.013,2.407c0.56,0,1.013-1.078,1.013-2.407
				C154.996,279.456,154.542,278.377,153.982,278.377z M221.467,281.865c-0.58,1.547,1.934,2.706,1.934,2.706
				s6.576-2.9,11.992-7.929c5.416-5.029,5.802-3.674,5.802-3.674c3.288,3.288-1.935,6.576-1.935,6.576l-12.184,14.118
				c-0.58,0.967-0.58,7.737-0.58,7.737c0.58-1.161,5.609-4.449,5.609-4.449c0.387-3.288,8.316-17.214,8.316-17.214
				c1.741-0.968,4.062-1.933,3.482,0.774c-0.58,2.706-2.127,15.473-2.127,15.473c3.868,0,4.641-1.935,4.641-3.095
				c0-1.161-2.127-15.279,0-17.987c2.127-2.706,0.58-6.77,0.58-6.77c-1.161,0-5.609,0-7.929,2.127
				C236.747,272.385,221.467,281.865,221.467,281.865z M153.032,286.867c-0.7,0-1.267,0.567-1.267,1.267
				c0,0.7,0.567,1.267,1.267,1.267c0.7,0,1.267-0.567,1.267-1.267C154.299,287.434,153.732,286.867,153.032,286.867z
				 M146.527,279.316c-0.488,0.276-0.354,1.438,0.298,2.595c0.652,1.159,1.577,1.875,2.065,1.601
				c0.488-0.276,0.354-1.438-0.299-2.595C147.939,279.759,147.015,279.042,146.527,279.316z M153.446,295.022
				c-0.556-0.061-1.127,0.959-1.274,2.28c-0.146,1.321,0.185,2.444,0.741,2.505c0.556,0.063,1.126-0.959,1.274-2.281
				C154.334,296.206,154.003,295.085,153.446,295.022z M252.89,292.887c0,1.161,0.773,3.095,4.641,3.095
				c0,0-1.547-12.767-2.127-15.473c-0.58-2.708,1.742-1.742,3.482-0.774c0,0,7.929,13.926,8.317,17.214c0,0,5.029,3.288,5.609,4.449
				c0,0,0-6.77-0.58-7.737l-12.186-14.118c0,0-5.221-3.288-1.934-6.576c0,0,0.386-1.354,5.803,3.674
				c5.415,5.029,11.991,7.929,11.991,7.929s2.514-1.159,1.935-2.706c0,0-15.281-9.479-17.602-11.606
				c-2.321-2.127-6.77-2.127-7.929-2.127c0,0-1.547,4.064,0.58,6.77C255.017,277.608,252.89,291.727,252.89,292.887z
				 M338.862,293.859c-0.983,0.895-1.476,1.957-1.098,2.371c0.375,0.414,1.477,0.025,2.463-0.872
				c0.981-0.894,1.473-1.955,1.098-2.369C340.945,292.574,339.843,292.965,338.862,293.859z M332.146,304.905
				c-0.165-1.156-0.923-3.243-3.629-2.971c-3.301,0.331-3.962,4.293-1.815,6.108c10.728,5.775,13.036-8.088,13.036-8.088
				C336.437,307.214,332.146,304.905,332.146,304.905z M340.365,289.239c-0.074-0.554-1.203-0.863-2.52-0.69
				c-1.318,0.175-2.329,0.764-2.254,1.32c0.071,0.556,1.2,0.863,2.52,0.69C339.426,290.385,340.436,289.795,340.365,289.239z
				 M352.481,281.911c0.652-1.158,0.786-2.32,0.297-2.595c-0.488-0.274-1.411,0.443-2.065,1.601
				c-0.653,1.158-0.786,2.32-0.297,2.595C350.905,283.786,351.828,283.07,352.481,281.911z M333.372,252.502
				c-1.099,1.346-1.642,2.725-1.207,3.081c0.434,0.354,1.678-0.452,2.779-1.799c1.099-1.347,1.639-2.727,1.207-3.081
				C335.717,250.348,334.473,251.155,333.372,252.502z M342.052,268.325c0.965-2.706,1.159-11.797-0.582-21.662
				c-1.739-9.862,5.997-9.282,5.997-9.282c-3.676-2.129-1.547-5.995-1.547-5.995c-8.705-2.321-10.444,4.255-10.059,4.835
				c0.388,0.58-0.385,2.126-0.385,2.126c-3.482-0.192-5.417-2.901-5.417-2.901c-0.579-1.934,2.514-5.027,2.514-5.027
				c-6.962-1.353-8.509,6.383-8.509,6.383c-5.221,2.9-7.156,10.443-8.897,13.924c-1.741,3.48-5.995,1.353-5.995,1.353
				c0,4.643,5.221,7.738,5.221,7.738c-0.578,0.965-1.352,2.321,0.774,12.185c2.129,9.864,0.774,16.052,0.774,16.052
				c-4.447,0.388-3.867-6.962-3.867-6.962c-2.709,0-4.643,3.288-4.643,3.288c-5.415-6.382,0.773-11.799,0.773-11.799
				c-3.868-1.933-5.609,0.774-5.609,0.774c-2.321-11.024,2.9-11.605,2.9-11.605c-0.385-2.127-4.447-3.482-4.447-3.482
				s0.194-6.382,3.868-10.25c3.674-3.868,6.383-1.547,6.383-1.547c-0.58-6.576-6.576-3.868-7.156-3.674
				c-0.582,0.192-1.161,2.9-2.321,0.773c-5.414-11.218-8.317-1.161-8.317-1.161c7.35,0.194,4.255,6.77,4.255,6.77
				c-6.768-1.935-12.571,0-12.571,0c8.511-0.194,12.958,1.547,12.958,1.547c-2.127,2.321-0.194,29.979-0.194,29.979
				c-15.497,26.988-42.593,27.474-47.846,27.303v-0.046c0,0-0.166,0.013-0.454,0.027c-0.288-0.014-0.454-0.027-0.454-0.027v0.046
				c-5.253,0.171-32.349-0.314-47.846-27.303c0,0,1.933-27.658-0.194-29.979c0,0,4.448-1.741,12.958-1.547c0,0-5.802-1.935-12.571,0
				c0,0-3.095-6.576,4.255-6.77c0,0-2.901-10.058-8.316,1.161c-1.161,2.127-1.741-0.58-2.321-0.773
				c-0.58-0.194-6.576-2.902-7.156,3.674c0,0,2.708-2.321,6.383,1.547c3.675,3.868,3.868,10.25,3.868,10.25
				s-4.061,1.355-4.448,3.482c0,0,5.222,0.58,2.901,11.605c0,0-1.741-2.708-5.609-0.774c0,0,6.189,5.417,0.773,11.799
				c0,0-1.934-3.288-4.642-3.288c0,0,0.581,7.35-3.868,6.962c0,0-1.355-6.188,0.773-16.052c2.128-9.864,1.354-11.22,0.773-12.185
				c0,0,5.223-3.095,5.223-7.738c0,0-4.256,2.127-5.996-1.353c-1.74-3.482-3.675-11.024-8.896-13.924c0,0-1.547-7.737-8.51-6.383
				c0,0,3.095,3.094,2.514,5.027c0,0-1.934,2.709-5.415,2.901c0,0-0.774-1.545-0.387-2.126c0.387-0.58-1.354-7.156-10.057-4.835
				c0,0,2.127,3.867-1.548,5.995c0,0,7.736-0.58,5.995,9.282c-1.74,9.865-1.548,18.956-0.58,21.662c0,0-10.83-0.195-7.929,8.123
				c0,0,3.287-5.414,8.316-2.708c0,0,5.029,5.805,2.902,8.124c0,0,0.071,0.093,0.195,0.232c-0.407,0.164-0.86,0.438-1.295,0.815
				c-1.005,0.87-1.524,1.919-1.157,2.342c0.366,0.424,1.478,0.061,2.483-0.808c0.518-0.449,0.904-0.944,1.109-1.377
				c0.399,0.255,0.862,0.472,1.374,0.536c0,0,4.255,5.803,0.193,6.964c0,0-1.548,3.673,7.156,0.579c0,0,9.477-0.192,8.317,9.285
				c0,0,5.416,0.58,4.642-5.803c0,0,4.834-2.708,6.768,1.741c1.935,4.449,0.58,5.415,0.58,5.415s7.542-0.968,2.901-7.35
				c0,0-1.934-3.482,4.836-8.509c0,0-0.194-2.323,2.514,1.161c0,0,15.231,28.83,48.04,29.361v0.025c0.154,0,0.301-0.011,0.454-0.012
				c0.153,0.001,0.3,0.012,0.454,0.012v-0.025c32.81-0.531,48.04-29.361,48.04-29.361c2.709-3.483,2.515-1.161,2.515-1.161
				c6.77,5.027,4.833,8.509,4.833,8.509c-4.64,6.382,2.903,7.35,2.903,7.35s-1.354-0.967,0.58-5.415
				c1.933-4.449,6.768-1.741,6.768-1.741c-0.773,6.383,4.641,5.803,4.641,5.803c-1.159-9.477,8.318-9.285,8.318-9.285
				c8.702,3.094,7.155-0.579,7.155-0.579c-4.062-1.161,0.192-6.964,0.192-6.964c0.512-0.064,0.975-0.28,1.375-0.535
				c0.205,0.433,0.59,0.928,1.108,1.377c1.006,0.869,2.119,1.232,2.485,0.808c0.367-0.423-0.152-1.471-1.158-2.342
				c-0.435-0.377-0.888-0.651-1.294-0.815c0.125-0.139,0.195-0.232,0.195-0.232c-2.129-2.32,2.899-8.124,2.899-8.124
				c5.032-2.706,8.317,2.708,8.317,2.708C352.882,268.13,342.052,268.325,342.052,268.325z M180.658,289.213
				c0,0-12.958,1.545-18.568-16.828c0,0,5.802-3.095,5.222-5.802c0,0-4.061,2.708-5.802,2.708c0,0-2.127-4.255-0.773-5.415
				c0,0,5.222-0.773,5.028-2.514c0,0-3.674,1.353-5.802-0.194c0,0-1.74-9.091,2.127-9.864c0,0-0.387-11.411,11.024-8.509
				c1.741,0.386,9.284,8.896,6.576,11.409c-2.708,2.515-3.288,2.323-2.902,3.483c0,0,3.675-1.356,3.869-0.195
				c0,0,0.967,3.677-0.194,4.256c0,0-2.514,1.74-3.481,1.547c0,0,4.448,1.741,3.095,3.868l0.386,1.354c0,0-3.869,1.162-4.642-0.194
				c0,0,0.773,1.935,3.094,2.902c0,0,0.387,1.159,0.194,2.32c-0.194,1.161-1.353,8.126,2.902,13.733
				C182.012,287.28,182.592,288.825,180.658,289.213z M339.344,261.169c-2.129,1.547-5.802,0.194-5.802,0.194
				c-0.195,1.741,5.027,2.514,5.027,2.514c1.353,1.161-0.773,5.415-0.773,5.415c-1.744,0-5.803-2.708-5.803-2.708
				c-0.58,2.706,5.221,5.802,5.221,5.802c-5.609,18.373-18.568,16.828-18.568,16.828c-1.933-0.388-1.352-1.933-1.352-1.933
				c4.255-5.608,3.095-12.573,2.9-13.733c-0.194-1.161,0.195-2.32,0.195-2.32c2.321-0.967,3.093-2.902,3.093-2.902
				c-0.771,1.356-4.641,0.194-4.641,0.194l0.386-1.354c-1.353-2.127,3.094-3.868,3.094-3.868c-0.965,0.192-3.48-1.547-3.48-1.547
				c-1.162-0.579-0.195-4.256-0.195-4.256c0.195-1.161,3.87,0.195,3.87,0.195c0.388-1.161-0.194-0.968-2.9-3.483
				c-2.709-2.514,4.833-11.023,6.576-11.409c11.411-2.902,11.023,8.509,11.023,8.509
				C341.082,252.078,339.344,261.169,339.344,261.169z M289.057,256.528c0,0-17.214,2.515-21.276,5.221
				c0,0,12.765,0.967,17.794,2.127c5.027,1.161,8.123-2.32,9.283-2.9C294.859,260.976,291.765,256.914,289.057,256.528z
				 M353.904,286.696c-1.325,0.101-2.368,0.634-2.326,1.193c0.044,0.557,1.152,0.929,2.477,0.83
				c1.324-0.101,2.365-0.634,2.324-1.191C356.339,286.969,355.228,286.599,353.904,286.696z M353.206,292.896
				c-1.088-0.764-2.229-1.013-2.553-0.556c-0.321,0.458,0.3,1.451,1.388,2.213c1.088,0.764,2.231,1.013,2.553,0.556
				C354.915,294.65,354.294,293.66,353.206,292.896z M346.337,280.784c0-1.328-0.454-2.407-1.013-2.407
				c-0.56,0-1.013,1.079-1.013,2.407c0,1.33,0.453,2.407,1.013,2.407C345.884,283.191,346.337,282.114,346.337,280.784z
				 M346.274,286.867c-0.698,0-1.267,0.567-1.267,1.267c0,0.7,0.569,1.267,1.267,1.267c0.7,0,1.268-0.567,1.268-1.267
				C347.543,287.434,346.974,286.867,346.274,286.867z M255.404,262.908l1.161,1.935c0,0,13.152,2.901,19.535,6.189
				c6.382,3.288,7.155,0.194,8.702-0.58c0,0-10.83-4.833-17.987-5.802c0,0,1.741-3.096-0.967-4.835c0,0,15.087-11.412,19.341-10.638
				c0,0-2.127-1.935-3.288-2.127C281.901,247.05,263.722,256.526,255.404,262.908z M345.86,295.022
				c-0.557,0.063-0.889,1.184-0.742,2.505c0.149,1.321,0.717,2.343,1.274,2.281c0.555-0.061,0.888-1.184,0.741-2.505
				C346.987,295.981,346.416,294.961,345.86,295.022z M327.362,260.727c-0.701,0-1.267,0.566-1.267,1.267
				c0,0.7,0.566,1.267,1.267,1.267c0.7,0,1.267-0.567,1.267-1.267C328.629,261.293,328.062,260.727,327.362,260.727z
				 M327.527,268.169c-0.56,0-1.013,1.411-1.013,3.149c0,1.739,0.453,3.151,1.013,3.151s1.013-1.412,1.013-3.151
				C328.54,269.58,328.086,268.169,327.527,268.169z M327.534,255.812c0.522-0.2,0.44-1.681-0.185-3.304
				c-0.624-1.623-1.554-2.776-2.079-2.576c-0.522,0.201-0.437,1.681,0.188,3.305C326.082,254.86,327.012,256.014,327.534,255.812z"
				/>
		</g>
		<g>
			<path style="fill:none;stroke:#000000;stroke-width:0.8816;" d="M171.945,260.727c-0.7,0-1.267,0.566-1.267,1.267
				c0,0.7,0.567,1.267,1.267,1.267c0.7,0,1.268-0.567,1.268-1.267C173.213,261.293,172.645,260.727,171.945,260.727z
				 M174.036,249.931c-0.523-0.2-1.453,0.954-2.078,2.576c-0.625,1.623-0.709,3.104-0.187,3.304
				c0.523,0.203,1.454-0.952,2.078-2.575C174.474,251.613,174.558,250.133,174.036,249.931z M171.78,268.169
				c-0.56,0-1.013,1.411-1.013,3.149c0,1.739,0.454,3.151,1.013,3.151c0.56,0,1.013-1.412,1.013-3.151
				C172.794,269.58,172.34,268.169,171.78,268.169z M163.156,250.703c-0.433,0.354,0.108,1.734,1.209,3.081
				c1.1,1.347,2.344,2.153,2.778,1.799c0.434-0.356-0.108-1.735-1.208-3.081C164.834,251.155,163.589,250.348,163.156,250.703z
				 M233.458,259.816c-2.707,1.739-0.966,4.835-0.966,4.835c-7.156,0.968-17.987,5.802-17.987,5.802
				c1.547,0.774,2.32,3.868,8.703,0.58c6.382-3.288,19.534-6.189,19.534-6.189l1.161-1.935
				c-8.318-6.382-26.497-15.858-26.497-15.858c-1.161,0.192-3.289,2.127-3.289,2.127
				C218.372,248.403,233.458,259.816,233.458,259.816z M170.79,301.933c-2.708-0.271-3.465,1.815-3.631,2.971
				c0,0-4.291,2.31-7.592-4.952c0,0,2.311,13.863,13.039,8.088C174.752,306.226,174.091,302.264,170.79,301.933z M161.543,296.229
				c0.377-0.414-0.114-1.476-1.097-2.371c-0.983-0.894-2.086-1.285-2.463-0.87c-0.377,0.414,0.115,1.476,1.097,2.369
				C160.064,296.254,161.167,296.643,161.543,296.229z M163.716,289.869c0.073-0.556-0.937-1.145-2.255-1.32
				c-1.317-0.173-2.446,0.136-2.519,0.69c-0.074,0.556,0.937,1.146,2.254,1.32C162.514,290.732,163.643,290.425,163.716,289.869z
				 M204.447,260.976c1.161,0.58,4.255,4.061,9.283,2.9c5.029-1.161,17.794-2.127,17.794-2.127
				c-4.062-2.706-21.275-5.221-21.275-5.221C207.542,256.914,204.447,260.976,204.447,260.976z M146.1,292.896
				c-1.088,0.764-1.709,1.754-1.387,2.213c0.322,0.458,1.465,0.208,2.553-0.556c1.087-0.763,1.709-1.756,1.387-2.213
				C148.33,291.883,147.188,292.132,146.1,292.896z M147.728,287.889c0.042-0.558-1-1.092-2.326-1.193
				c-1.325-0.098-2.434,0.273-2.477,0.831c-0.042,0.557,0.999,1.091,2.325,1.191C146.576,288.818,147.685,288.446,147.728,287.889z
				 M153.982,278.377c-0.56,0-1.013,1.079-1.013,2.407c0,1.33,0.454,2.407,1.013,2.407c0.56,0,1.013-1.078,1.013-2.407
				C154.996,279.456,154.542,278.377,153.982,278.377z M221.467,281.865c-0.58,1.547,1.934,2.706,1.934,2.706
				s6.576-2.9,11.992-7.929c5.416-5.029,5.802-3.674,5.802-3.674c3.288,3.288-1.935,6.576-1.935,6.576l-12.184,14.118
				c-0.58,0.967-0.58,7.737-0.58,7.737c0.58-1.161,5.609-4.449,5.609-4.449c0.387-3.288,8.316-17.214,8.316-17.214
				c1.741-0.968,4.062-1.933,3.482,0.774c-0.58,2.706-2.127,15.473-2.127,15.473c3.868,0,4.641-1.935,4.641-3.095
				c0-1.161-2.127-15.279,0-17.987c2.127-2.706,0.58-6.77,0.58-6.77c-1.161,0-5.609,0-7.929,2.127
				C236.747,272.385,221.467,281.865,221.467,281.865z M153.032,286.867c-0.7,0-1.267,0.567-1.267,1.267
				c0,0.7,0.567,1.267,1.267,1.267c0.7,0,1.267-0.567,1.267-1.267C154.299,287.434,153.732,286.867,153.032,286.867z
				 M146.527,279.316c-0.488,0.276-0.354,1.438,0.298,2.595c0.652,1.159,1.577,1.875,2.065,1.601
				c0.488-0.276,0.354-1.438-0.299-2.595C147.939,279.759,147.015,279.042,146.527,279.316z M153.446,295.022
				c-0.556-0.061-1.127,0.959-1.274,2.28c-0.146,1.321,0.185,2.444,0.741,2.505c0.556,0.063,1.126-0.959,1.274-2.281
				C154.334,296.206,154.003,295.085,153.446,295.022z M252.89,292.887c0,1.161,0.773,3.095,4.641,3.095
				c0,0-1.547-12.767-2.127-15.473c-0.58-2.708,1.742-1.742,3.482-0.774c0,0,7.929,13.926,8.317,17.214c0,0,5.029,3.288,5.609,4.449
				c0,0,0-6.77-0.58-7.737l-12.186-14.118c0,0-5.221-3.288-1.934-6.576c0,0,0.386-1.354,5.803,3.674
				c5.415,5.029,11.991,7.929,11.991,7.929s2.514-1.159,1.935-2.706c0,0-15.281-9.479-17.602-11.606
				c-2.321-2.127-6.77-2.127-7.929-2.127c0,0-1.547,4.064,0.58,6.77C255.017,277.608,252.89,291.727,252.89,292.887z
				 M338.862,293.859c-0.983,0.895-1.476,1.957-1.098,2.371c0.375,0.414,1.477,0.025,2.463-0.872
				c0.981-0.894,1.473-1.955,1.098-2.369C340.945,292.574,339.843,292.965,338.862,293.859z M332.146,304.905
				c-0.165-1.156-0.923-3.243-3.629-2.971c-3.301,0.331-3.962,4.293-1.815,6.108c10.728,5.775,13.036-8.088,13.036-8.088
				C336.437,307.214,332.146,304.905,332.146,304.905z M340.365,289.239c-0.074-0.554-1.203-0.863-2.52-0.69
				c-1.318,0.175-2.329,0.764-2.254,1.32c0.071,0.556,1.2,0.863,2.52,0.69C339.426,290.385,340.436,289.795,340.365,289.239z
				 M352.481,281.911c0.652-1.158,0.786-2.32,0.297-2.595c-0.488-0.274-1.411,0.443-2.065,1.601
				c-0.653,1.158-0.786,2.32-0.297,2.595C350.905,283.786,351.828,283.07,352.481,281.911z M333.372,252.502
				c-1.099,1.346-1.642,2.725-1.207,3.081c0.434,0.354,1.678-0.452,2.779-1.799c1.099-1.347,1.639-2.727,1.207-3.081
				C335.717,250.348,334.473,251.155,333.372,252.502z M342.052,268.325c0.965-2.706,1.159-11.797-0.582-21.662
				c-1.739-9.862,5.997-9.282,5.997-9.282c-3.676-2.129-1.547-5.995-1.547-5.995c-8.705-2.321-10.444,4.255-10.059,4.835
				c0.388,0.58-0.385,2.126-0.385,2.126c-3.482-0.192-5.417-2.901-5.417-2.901c-0.579-1.934,2.514-5.027,2.514-5.027
				c-6.962-1.353-8.509,6.383-8.509,6.383c-5.221,2.9-7.156,10.443-8.897,13.924c-1.741,3.48-5.995,1.353-5.995,1.353
				c0,4.643,5.221,7.738,5.221,7.738c-0.578,0.965-1.352,2.321,0.774,12.185c2.129,9.864,0.774,16.052,0.774,16.052
				c-4.447,0.388-3.867-6.962-3.867-6.962c-2.709,0-4.643,3.288-4.643,3.288c-5.415-6.382,0.773-11.799,0.773-11.799
				c-3.868-1.933-5.609,0.774-5.609,0.774c-2.321-11.024,2.9-11.605,2.9-11.605c-0.385-2.127-4.447-3.482-4.447-3.482
				s0.194-6.382,3.868-10.25c3.674-3.868,6.383-1.547,6.383-1.547c-0.58-6.576-6.576-3.868-7.156-3.674
				c-0.582,0.192-1.161,2.9-2.321,0.773c-5.414-11.218-8.317-1.161-8.317-1.161c7.35,0.194,4.255,6.77,4.255,6.77
				c-6.768-1.935-12.571,0-12.571,0c8.511-0.194,12.958,1.547,12.958,1.547c-2.127,2.321-0.194,29.979-0.194,29.979
				c-15.497,26.988-42.593,27.474-47.846,27.303v-0.046c0,0-0.166,0.013-0.454,0.027c-0.288-0.014-0.454-0.027-0.454-0.027v0.046
				c-5.253,0.171-32.349-0.314-47.846-27.303c0,0,1.933-27.658-0.194-29.979c0,0,4.448-1.741,12.958-1.547c0,0-5.802-1.935-12.571,0
				c0,0-3.095-6.576,4.255-6.77c0,0-2.901-10.058-8.316,1.161c-1.161,2.127-1.741-0.58-2.321-0.773
				c-0.58-0.194-6.576-2.902-7.156,3.674c0,0,2.708-2.321,6.383,1.547c3.675,3.868,3.868,10.25,3.868,10.25
				s-4.061,1.355-4.448,3.482c0,0,5.222,0.58,2.901,11.605c0,0-1.741-2.708-5.609-0.774c0,0,6.189,5.417,0.773,11.799
				c0,0-1.934-3.288-4.642-3.288c0,0,0.581,7.35-3.868,6.962c0,0-1.355-6.188,0.773-16.052c2.128-9.864,1.354-11.22,0.773-12.185
				c0,0,5.223-3.095,5.223-7.738c0,0-4.256,2.127-5.996-1.353c-1.74-3.482-3.675-11.024-8.896-13.924c0,0-1.547-7.737-8.51-6.383
				c0,0,3.095,3.094,2.514,5.027c0,0-1.934,2.709-5.415,2.901c0,0-0.774-1.545-0.387-2.126c0.387-0.58-1.354-7.156-10.057-4.835
				c0,0,2.127,3.867-1.548,5.995c0,0,7.736-0.58,5.995,9.282c-1.74,9.865-1.548,18.956-0.58,21.662c0,0-10.83-0.195-7.929,8.123
				c0,0,3.287-5.414,8.316-2.708c0,0,5.029,5.805,2.902,8.124c0,0,0.071,0.093,0.195,0.232c-0.407,0.164-0.86,0.438-1.295,0.815
				c-1.005,0.87-1.524,1.919-1.157,2.342c0.366,0.424,1.478,0.061,2.483-0.808c0.518-0.449,0.904-0.944,1.109-1.377
				c0.399,0.255,0.862,0.472,1.374,0.536c0,0,4.255,5.803,0.193,6.964c0,0-1.548,3.673,7.156,0.579c0,0,9.477-0.192,8.317,9.285
				c0,0,5.416,0.58,4.642-5.803c0,0,4.834-2.708,6.768,1.741c1.935,4.449,0.58,5.415,0.58,5.415s7.542-0.968,2.901-7.35
				c0,0-1.934-3.482,4.836-8.509c0,0-0.194-2.323,2.514,1.161c0,0,15.231,28.83,48.04,29.361v0.025c0.154,0,0.301-0.011,0.454-0.012
				c0.153,0.001,0.3,0.012,0.454,0.012v-0.025c32.81-0.531,48.04-29.361,48.04-29.361c2.709-3.483,2.515-1.161,2.515-1.161
				c6.77,5.027,4.833,8.509,4.833,8.509c-4.64,6.382,2.903,7.35,2.903,7.35s-1.354-0.967,0.58-5.415
				c1.933-4.449,6.768-1.741,6.768-1.741c-0.773,6.383,4.641,5.803,4.641,5.803c-1.159-9.477,8.318-9.285,8.318-9.285
				c8.702,3.094,7.155-0.579,7.155-0.579c-4.062-1.161,0.192-6.964,0.192-6.964c0.512-0.064,0.975-0.28,1.375-0.535
				c0.205,0.433,0.59,0.928,1.108,1.377c1.006,0.869,2.119,1.232,2.485,0.808c0.367-0.423-0.152-1.471-1.158-2.342
				c-0.435-0.377-0.888-0.651-1.294-0.815c0.125-0.139,0.195-0.232,0.195-0.232c-2.129-2.32,2.899-8.124,2.899-8.124
				c5.032-2.706,8.317,2.708,8.317,2.708C352.882,268.13,342.052,268.325,342.052,268.325z M180.658,289.213
				c0,0-12.958,1.545-18.568-16.828c0,0,5.802-3.095,5.222-5.802c0,0-4.061,2.708-5.802,2.708c0,0-2.127-4.255-0.773-5.415
				c0,0,5.222-0.773,5.028-2.514c0,0-3.674,1.353-5.802-0.194c0,0-1.74-9.091,2.127-9.864c0,0-0.387-11.411,11.024-8.509
				c1.741,0.386,9.284,8.896,6.576,11.409c-2.708,2.515-3.288,2.323-2.902,3.483c0,0,3.675-1.356,3.869-0.195
				c0,0,0.967,3.677-0.194,4.256c0,0-2.514,1.74-3.481,1.547c0,0,4.448,1.741,3.095,3.868l0.386,1.354c0,0-3.869,1.162-4.642-0.194
				c0,0,0.773,1.935,3.094,2.902c0,0,0.387,1.159,0.194,2.32c-0.194,1.161-1.353,8.126,2.902,13.733
				C182.012,287.28,182.592,288.825,180.658,289.213z M339.344,261.169c-2.129,1.547-5.802,0.194-5.802,0.194
				c-0.195,1.741,5.027,2.514,5.027,2.514c1.353,1.161-0.773,5.415-0.773,5.415c-1.744,0-5.803-2.708-5.803-2.708
				c-0.58,2.706,5.221,5.802,5.221,5.802c-5.609,18.373-18.568,16.828-18.568,16.828c-1.933-0.388-1.352-1.933-1.352-1.933
				c4.255-5.608,3.095-12.573,2.9-13.733c-0.194-1.161,0.195-2.32,0.195-2.32c2.321-0.967,3.093-2.902,3.093-2.902
				c-0.771,1.356-4.641,0.194-4.641,0.194l0.386-1.354c-1.353-2.127,3.094-3.868,3.094-3.868c-0.965,0.192-3.48-1.547-3.48-1.547
				c-1.162-0.579-0.195-4.256-0.195-4.256c0.195-1.161,3.87,0.195,3.87,0.195c0.388-1.161-0.194-0.968-2.9-3.483
				c-2.709-2.514,4.833-11.023,6.576-11.409c11.411-2.902,11.023,8.509,11.023,8.509
				C341.082,252.078,339.344,261.169,339.344,261.169z M289.057,256.528c0,0-17.214,2.515-21.276,5.221
				c0,0,12.765,0.967,17.794,2.127c5.027,1.161,8.123-2.32,9.283-2.9C294.859,260.976,291.765,256.914,289.057,256.528z
				 M353.904,286.696c-1.325,0.101-2.368,0.634-2.326,1.193c0.044,0.557,1.152,0.929,2.477,0.83
				c1.324-0.101,2.365-0.634,2.324-1.191C356.339,286.969,355.228,286.599,353.904,286.696z M353.206,292.896
				c-1.088-0.764-2.229-1.013-2.553-0.556c-0.321,0.458,0.3,1.451,1.388,2.213c1.088,0.764,2.231,1.013,2.553,0.556
				C354.915,294.65,354.294,293.66,353.206,292.896z M346.337,280.784c0-1.328-0.454-2.407-1.013-2.407
				c-0.56,0-1.013,1.079-1.013,2.407c0,1.33,0.453,2.407,1.013,2.407C345.884,283.191,346.337,282.114,346.337,280.784z
				 M346.274,286.867c-0.698,0-1.267,0.567-1.267,1.267c0,0.7,0.569,1.267,1.267,1.267c0.7,0,1.268-0.567,1.268-1.267
				C347.543,287.434,346.974,286.867,346.274,286.867z M255.404,262.908l1.161,1.935c0,0,13.152,2.901,19.535,6.189
				c6.382,3.288,7.155,0.194,8.702-0.58c0,0-10.83-4.833-17.987-5.802c0,0,1.741-3.096-0.967-4.835c0,0,15.087-11.412,19.341-10.638
				c0,0-2.127-1.935-3.288-2.127C281.901,247.05,263.722,256.526,255.404,262.908z M345.86,295.022
				c-0.557,0.063-0.889,1.184-0.742,2.505c0.149,1.321,0.717,2.343,1.274,2.281c0.555-0.061,0.888-1.184,0.741-2.505
				C346.987,295.981,346.416,294.961,345.86,295.022z M327.362,260.727c-0.701,0-1.267,0.566-1.267,1.267
				c0,0.7,0.566,1.267,1.267,1.267c0.7,0,1.267-0.567,1.267-1.267C328.629,261.293,328.062,260.727,327.362,260.727z
				 M327.527,268.169c-0.56,0-1.013,1.411-1.013,3.149c0,1.739,0.453,3.151,1.013,3.151s1.013-1.412,1.013-3.151
				C328.54,269.58,328.086,268.169,327.527,268.169z M327.534,255.812c0.522-0.2,0.44-1.681-0.185-3.304
				c-0.624-1.623-1.554-2.776-2.079-2.576c-0.522,0.201-0.437,1.681,0.188,3.305C326.082,254.86,327.012,256.014,327.534,255.812z"
				/>
		</g>
	</g>
	<path style="fill:#FFFF01;" d="M225.01,412.47c-9.447-16.672-21.593-17.551-21.593-17.551c-1.349,3.508,1.349,17.551,9.897,21.499
		c8.548,3.948,16.195,9.213,16.195,9.213c-6.747,2.632-18.444-5.265-18.444-5.265c-8.547-10.53-6.298,2.193-6.298,2.193
		c-4.498-1.317-12.596-10.09-14.395-21.06c-1.799-10.969-15.295-16.67-15.295-16.67c-4.499,17.11,15.295,30.272,15.295,30.272
		l-0.9,1.754l-8.097-7.019c-6.748-8.773-5.848,3.071-5.848,3.071c-2.699-2.194-5.398-5.265-6.298-17.11
		c-0.9-11.845-17.994-23.692-17.994-23.692c-2.699,17.11,14.846,33.783,14.846,33.783h-1.8
		c-15.295-18.866-11.696-5.704-11.696-5.704c-1.799-3.072-9.897-4.826-10.797-22.375c-0.9-17.551-13.495-22.377-13.495-22.377
		c0,5.265-2.25,14.919,4.498,22.816c6.748,7.897,4.949,11.845,4.949,11.845c-1.799-4.825-8.547-10.529-8.547-10.529
		c-0.45,2.632-0.9,4.387-0.9,4.387c-4.048-2.194-8.097-9.652-8.097-9.652c8.547-23.252-6.298-34.661-6.298-34.661
		c-6.749,11.406,0,31.15,0,31.15l-3.599-3.949c-1.349-15.356-5.849-7.019-5.849-7.019c-2.25-1.317-4.497-7.021-4.497-7.021
		c7.197-27.64-7.198-41.679-7.198-41.679c-4.949,6.58,0.45,34.66,0.45,34.66c-2.248-3.071-6.747-10.968-6.747-10.968
		c2.698-14.917-4.049-7.02-4.049-7.02c-2.249-3.95-2.699-7.458-2.699-7.458c11.697-11.406-0.451-40.365-0.451-40.365
		c-5.848,10.969-4.498,31.589-4.498,31.589c-1.8-3.51-4.949-11.406-4.949-11.406c1.8-1.317,2.249-7.898,2.249-7.898
		c0.9-8.337-4.948-0.876-4.948-0.876l-1.349-4.826l0.451-3.511c13.945-15.356,6.297-32.467,6.297-32.467
		c-9.448,6.582-8.098,23.253-8.098,23.253l-1.799-11.408l2.25-4.825c2.25-6.141-3.599-2.632-3.599-2.632l0.45-6.582
		c7.647-3.948,8.548-21.059,8.548-21.059c-4.949,0.439-9.447,12.723-9.447,12.723c0-3.071,0-3.071,3.148-9.214
		c3.149-6.143-2.699-3.072-2.699-3.072c0-3.071,3.149-9.212,3.149-9.212c11.697-6.582,8.098-22.816,8.098-22.816
		c-4.5,3.072-8.997,16.234-8.997,16.234l-0.096-0.093c0.919-4.943,2.364-10.362,3.128-13.099
		c10.416-12.291,10.912-34.629,10.912-34.629c-14.142,14.263-14.49,30.555-14.126,36.156c-0.575,2.154-1.281,4.941-1.905,7.821
		c-0.905-5.036-3.312-11.071-3.312-11.071c-4.498,4.386-2.249,15.794-2.249,15.794c3.598,6.143,2.699,14.038,2.699,14.038
		c-7.647-4.386,0,9.652,0,9.652l-0.9,4.389c-3.149-4.826-6.297-13.162-6.297-13.162c-5.398,17.988,7.198,22.374,7.198,22.374v5.265
		c-11.247-0.878,1.349,7.898,1.349,7.898l0.9,12.284c-2.7-8.334-11.697-16.671-11.697-16.671c-1.8,25.007,13.496,24.57,13.496,24.57
		l1.799,8.773c-12.145-1.315,3.599,10.091,3.599,10.091l4.049,10.53c-3.149-3.51-19.792-14.479-19.792-14.479
		c0.899,17.11,13.495,21.938,19.792,23.253c6.297,1.317,7.648,7.898,7.648,7.898c-13.495,2.632,4.048,7.456,4.048,7.456l6.298,9.214
		c-6.748-4.826-26.541-11.845-26.541-11.845c5.398,21.059,28.79,21.059,28.79,21.059c4.497,0,9.897,7.022,9.897,7.022
		c-4.499-0.878-5.398,1.754-5.398,1.754c7.648,6.143,10.797,3.949,10.797,3.949l4.049,4.387c-9.898-3.511-28.792-1.317-28.792-1.317
		c10.797,15.355,31.49,7.459,31.49,7.459c4.048,0,12.596,7.897,12.596,7.897c-1.799,0-4.949,2.194-4.949,2.194
		c4.049,4.387,12.146,3.071,12.146,3.071l6.298,5.265c-13.495-2.633-36.888,0-36.888,0c15.296,15.794,36.888,5.702,36.888,5.702
		c6.748-1.755,10.796,0.878,10.796,0.878c-3.148,0-7.647,6.582-1.349,5.265c6.298-1.317,14.846,1.317,14.846,1.317
		c-12.146-0.878-35.089,8.775-35.089,8.775c13.496,9.654,29.24-1.317,35.537-3.51c6.298-2.194,10.797,0.878,10.797,0.878
		c-1.8,0.439-7.197,3.948-7.197,3.948c2.25,0.439,6.297,3.071,11.246,0c4.948-3.071,8.547,0.437,8.547,0.437
		c-8.997,1.317-33.739,13.163-33.739,13.163c17.995,12.284,34.639-5.704,37.789-8.336c3.149-2.633,11.246-1.317,11.246-1.317
		c-1.349,0-4.048,4.825-4.048,4.825c8.097,3.071,14.395-2.193,14.395-2.193c19.344,5.265,28.341,3.071,28.341,3.071
		S234.457,429.14,225.01,412.47z"/>
	<path style="fill:#FFFF01;" d="M271.95,403.694l-4.5-3.948c0,0-1.35-3.072-6.748-1.317c0,0-2.482,2.611-11.772,2.626
		c-9.29-0.015-11.774-2.626-11.774-2.626c-5.398-1.756-6.747,1.317-6.747,1.317l-4.499,3.948c-3.148,2.193-1.35,4.389-1.35,4.389
		l15.746,14.916c5.848,3.949,7.647,1.317,7.647,1.317l-6.297-11.845c-4.049,0-7.648-3.511-7.648-3.511
		c5.431,2.554,14.476,1.973,14.923,1.942c0.448,0.031,9.492,0.612,14.923-1.942c0,0-3.598,3.511-7.647,3.511l-6.298,11.845
		c0,0,1.8,2.632,7.648-1.317l15.744-14.916C273.3,408.083,275.098,405.887,271.95,403.694z"/>
	<path d="M235.442,436.372c0,0-7.352,0.001-9.599-1.225c0,0-27.573,4.494-37.581,7.557l11.029,6.739c0,0,3.063,1.022,5.106,0
		C206.44,448.423,234.626,436.577,235.442,436.372z"/>
	<path style="fill:#FFFF01;" d="M245.245,434.474c0,0-7.965,13.276-12.458,9.394c-4.493-3.88-7.76-8.576-15.931-1.429
		c-8.17,7.147-5.106,8.782-5.106,8.782s9.395,3.472,13.48,2.041c0,0,5.107-7.556,5.719-3.472c0.612,4.085,5.309,5.514,10.416,1.43
		c5.106-4.086,6.78-13.856,7.761-16.747C249.126,434.474,246.47,436.107,245.245,434.474z"/>
	<path style="fill:#FFFF01;" d="M272.599,412.47c9.448-16.672,21.594-17.551,21.594-17.551c1.349,3.508-1.349,17.551-9.897,21.499
		c-8.547,3.948-16.195,9.213-16.195,9.213c6.748,2.632,18.446-5.265,18.446-5.265c8.547-10.53,6.297,2.193,6.297,2.193
		c4.498-1.317,12.596-10.09,14.395-21.06c1.799-10.969,15.295-16.67,15.295-16.67c4.499,17.11-15.295,30.272-15.295,30.272
		l0.901,1.754l8.095-7.019c6.749-8.773,5.847,3.071,5.847,3.071c2.699-2.194,5.398-5.265,6.3-17.11
		c0.9-11.845,17.992-23.692,17.992-23.692c2.699,17.11-14.846,33.783-14.846,33.783h1.801c15.297-18.866,11.697-5.704,11.697-5.704
		c1.799-3.072,9.896-4.826,10.797-22.375c0.898-17.551,13.494-22.377,13.494-22.377c0,5.265,2.251,14.919-4.498,22.816
		c-6.748,7.897-4.949,11.845-4.949,11.845c1.801-4.825,8.549-10.529,8.549-10.529c0.449,2.632,0.898,4.387,0.898,4.387
		c4.048-2.194,8.097-9.652,8.097-9.652c-8.547-23.252,6.3-34.661,6.3-34.661c6.748,11.406,0,31.15,0,31.15l3.599-3.949
		c1.349-15.356,5.848-7.019,5.848-7.019c2.248-1.317,4.497-7.021,4.497-7.021c-7.198-27.64,7.198-41.679,7.198-41.679
		c4.947,6.58-0.451,34.66-0.451,34.66c2.248-3.071,6.748-10.968,6.748-10.968c-2.699-14.917,4.049-7.02,4.049-7.02
		c2.248-3.95,2.699-7.458,2.699-7.458c-11.695-11.406,0.451-40.365,0.451-40.365c5.85,10.969,4.499,31.589,4.499,31.589
		c1.798-3.51,4.947-11.406,4.947-11.406c-1.799-1.317-2.248-7.898-2.248-7.898c-0.901-8.337,4.947-0.876,4.947-0.876l1.35-4.826
		l-0.45-3.511c-13.947-15.356-6.297-32.467-6.297-32.467c9.447,6.582,8.098,23.253,8.098,23.253l1.799-11.408l-2.25-4.825
		c-2.25-6.141,3.598-2.632,3.598-2.632l-0.449-6.582c-7.647-3.948-8.549-21.059-8.549-21.059c4.947,0.439,9.447,12.723,9.447,12.723
		c0-3.071,0-3.071-3.148-9.214c-3.149-6.143,2.699-3.072,2.699-3.072c0-3.071-3.148-9.212-3.148-9.212
		c-11.697-6.582-8.098-22.816-8.098-22.816c4.498,3.072,8.998,16.234,8.998,16.234l0.093-0.093
		c-0.917-4.943-2.364-10.362-3.129-13.099c-10.414-12.291-10.909-34.629-10.909-34.629c14.142,14.263,14.489,30.555,14.126,36.156
		c0.575,2.154,1.28,4.941,1.904,7.821c0.906-5.036,3.311-11.071,3.311-11.071c4.501,4.386,2.251,15.794,2.251,15.794
		c-3.6,6.143-2.699,14.038-2.699,14.038c7.648-4.386,0,9.652,0,9.652l0.9,4.389c3.149-4.826,6.296-13.162,6.296-13.162
		c5.398,17.988-7.195,22.374-7.195,22.374v5.265c11.243-0.878-1.35,7.898-1.35,7.898l-0.901,12.284
		c2.699-8.334,11.698-16.671,11.698-16.671c1.796,25.007-13.496,24.57-13.496,24.57l-1.799,8.773
		c12.146-1.315-3.6,10.091-3.6,10.091l-4.048,10.53c3.148-3.51,19.793-14.479,19.793-14.479c-0.9,17.11-13.496,21.938-19.793,23.253
		c-6.299,1.317-7.649,7.898-7.649,7.898c13.496,2.632-4.049,7.456-4.049,7.456l-6.297,9.214
		c6.749-4.826,26.543-11.845,26.543-11.845c-5.399,21.059-28.79,21.059-28.79,21.059c-4.501,0-9.899,7.022-9.899,7.022
		c4.5-0.878,5.398,1.754,5.398,1.754c-7.646,6.143-10.796,3.949-10.796,3.949l-4.049,4.387c9.897-3.511,28.792-1.317,28.792-1.317
		c-10.797,15.355-31.491,7.459-31.491,7.459c-4.049,0-12.596,7.897-12.596,7.897c1.801,0,4.95,2.194,4.95,2.194
		c-4.049,4.387-12.147,3.071-12.147,3.071l-6.299,5.265c13.496-2.633,36.887,0,36.887,0c-15.295,15.794-36.887,5.702-36.887,5.702
		c-6.748-1.755-10.797,0.878-10.797,0.878c3.149,0,7.648,6.582,1.35,5.265c-6.299-1.317-14.846,1.317-14.846,1.317
		c12.147-0.878,35.088,8.775,35.088,8.775c-13.494,9.654-29.24-1.317-35.536-3.51c-6.299-2.194-10.797,0.878-10.797,0.878
		c1.798,0.439,7.196,3.948,7.196,3.948c-2.247,0.439-6.296,3.071-11.245,0c-4.949-3.071-8.547,0.437-8.547,0.437
		c8.996,1.317,33.738,13.163,33.738,13.163c-17.995,12.284-34.636-5.704-37.787-8.336c-3.149-2.633-11.247-1.317-11.247-1.317
		c1.35,0,4.049,4.825,4.049,4.825c-8.098,3.071-14.394-2.193-14.394-2.193c-19.346,5.265-28.342,3.071-28.342,3.071
		S263.153,429.14,272.599,412.47z"/>
	<path d="M264.447,436.372c0,0,7.352,0.001,9.598-1.225c0,0,27.572,4.494,37.58,7.557l-11.029,6.739c0,0-3.063,1.022-5.106,0
		C293.447,448.423,265.263,436.577,264.447,436.372z"/>
	<path style="fill:#FFFF01;" d="M254.641,434.474c0,0,7.965,13.276,12.459,9.394c4.494-3.88,7.761-8.576,15.931-1.429
		c8.169,7.147,5.108,8.782,5.108,8.782s-9.397,3.472-13.481,2.041c0,0-5.106-7.556-5.719-3.472c-0.614,4.085-5.31,5.514-10.415,1.43
		c-5.108-4.086-6.781-13.856-7.761-16.747C250.763,434.474,253.418,436.107,254.641,434.474z"/>
	<path d="M254.64,434.521c0,1.248-2.03,2.26-4.532,2.26c-2.503,0-4.532-1.012-4.532-2.26c0-1.248,2.029-2.261,4.532-2.261
		C252.61,432.259,254.64,433.273,254.64,434.521z"/>
	<g>
		<path d="M323.995,337.463c0,0,7.789,4.048,1.998,9.113c-1.232,1.076-3.58,5.842-11.418-2.502c0,0-2.6,8.517-11.075,5.342
			c0,0,1.229,11.956-12.577,19.143c0,0-7.306,0.959-11.438-2.215c0,0,24.319,0.179,21.592-15.352c0,0-1.115-5.001,2.827-3.288
			c0,0,12.724,0.273,8.556-6.669c0,0-8.495-7.23-9.973-6.749c0,0-2.867-0.481,2.768-6.765c0,0,12.519-5.245,18.076-10.376
			l3.192-0.077c0,0-12.421,8.148-20.169,11.395c0,0-4.096,4.94-0.656,5.461c0,0,8.534,6.653,12.917,10.422
			c4.383,3.769,6.131,3.597,7.284-0.672c1.155-4.268-2.673-3.364-2.673-3.364L323.995,337.463z"/>
		<path d="M289.394,335.148l-1.404,3.671c0,0-9.846-0.08-11.156,6.494c0,0-1.515,1.057,6.229,2.155c0,0,3.711,0.827,1.441,4.44
			c-2.269,3.615-21.263,14.799-29.758,3.222c-2.097-3.327,4.154-10.148,5.307-10.072c0,0-7.617,9.918,1.823,11.708
			c9.441,1.792,29.548-4.393,19.093-8.279c-2.27-0.732-10.998-0.157-2.285-9.135C280.551,337.452,285.934,334.916,289.394,335.148z"
			/>
		<path d="M239.56,348.321c-6.708,0.709-8.191,5.533-8.191,5.533c1.651,5.615,9.361,2.945,9.361,2.945
			c4.536,5.808-8.748,5.207-12.727,4.071c-3.979-1.134-1.401-9.364-1.401-9.364c0.808-3.422-0.517-5.246-0.517-5.246
			c-6.865,7.359-13.842,3.418-13.842,3.418l1.171,4.132c-4.984,13.86-28.569,2.721-28.569,2.721l8.764,7.54
			c20.532,0.506,22.246-12.122,22.246-12.122c1.384,0.959,8.538-2.038,8.538-2.038c-1.079,3.114-0.407,10.402-0.407,10.402
			c9.415,10.768,19.205-1.321,19.205-1.321C245.597,349.017,239.56,348.321,239.56,348.321z M240.289,354.741
			c0,0-3.423,3.539-6.287-1.289c0,0,1.713-3.941,5.076-2.269C242.441,352.859,240.289,354.741,240.289,354.741z"/>
		<path d="M210.307,322.321c0,0-2.654,5.038-3.56,14.244c-0.271,4.037-3.483,8.744-7.462,11.955c0,0,4.866-7.784,5.636-14.973
			C205.692,326.357,205.77,325.204,210.307,322.321z"/>
		<path d="M192.387,334.735c-8.132,0.325-7.747,3.247-7.747,3.247c-0.021,4.634,6.918,4.807,6.918,4.807
			c2.843,9.458-14.207,4.552-14.207,4.552c-32.276-6.795-17.18-24.614-17.18-24.614c-15.709,9.666-3.734,16.841-3.734,16.841
			c23.007,15.444,34.794,8.123,34.794,8.123C198.249,342.367,192.387,334.735,192.387,334.735z M190.868,340.137
			c-2.097,1.018-4.25-1.443-4.25-1.443c0.501-3.152,3.615-2.075,3.615-2.075C192.347,339.658,190.868,340.137,190.868,340.137z"/>
		
			<rect x="192.101" y="326.425" transform="matrix(0.9128 -0.4084 0.4084 0.9128 -116.9419 107.5046)" width="2.369" height="2.368"/>
		
			<rect x="196.421" y="327.753" transform="matrix(0.9131 -0.4076 0.4076 0.9131 -116.9262 109.1244)" width="2.369" height="2.371"/>
		
			<rect x="213.016" y="364.422" transform="matrix(0.7695 -0.6387 0.6387 0.7695 -184.1262 221.0857)" width="2.368" height="2.369"/>
		
			<rect x="217.534" y="364.543" transform="matrix(0.7696 -0.6385 0.6385 0.7696 -183.1268 223.9021)" width="2.369" height="2.368"/>
		
			<rect x="240.776" y="340.019" transform="matrix(0.8485 -0.5291 0.5291 0.8485 -143.8963 179.7136)" width="2.371" height="2.369"/>
		
			<rect x="245.239" y="340.745" transform="matrix(0.8479 -0.5302 0.5302 0.8479 -143.8017 182.667)" width="2.369" height="2.368"/>
		<rect x="244.5" y="334.34" transform="matrix(0.8 -0.6001 0.6001 0.8 -152.1873 214.5475)" width="2.371" height="2.369"/>
		
			<rect x="264.176" y="366.036" transform="matrix(0.7693 -0.6389 0.6389 0.7693 -173.3907 254.2398)" width="2.369" height="2.37"/>
		
			<rect x="268.695" y="366.158" transform="matrix(0.7696 -0.6385 0.6385 0.7696 -172.3718 256.9395)" width="2.369" height="2.368"/>
		<rect x="319.1" y="333.299" transform="matrix(0.1564 -0.9877 0.9877 0.1564 -60.1858 598.4977)" width="2.37" height="2.368"/>
		
			<rect x="296.918" y="324.837" transform="matrix(0.1557 -0.9878 0.9878 0.1557 -70.3653 569.7175)" width="2.371" height="2.371"/>
	</g>
</g>
</svg>
